<?xml version="1.0" encoding="utf-8"?>
<!-- Generator: Adobe Illustrator 15.0.0, SVG Export Plug-In . SVG Version: 6.00 Build 0)  -->
<!DOCTYPE svg PUBLIC "-//W3C//DTD SVG 1.1//EN" "http://www.w3.org/Graphics/SVG/1.1/DTD/svg11.dtd">
<svg version="1.1" id="Layer_1" xmlns="http://www.w3.org/2000/svg" xmlns:xlink="http://www.w3.org/1999/xlink" x="0px" y="0px"
	 width="150px" height="150px" viewBox="0 0 26 26" enable-background="new 0 0 26 26" xml:space="preserve">
<rect fill="none" width="150" height="150"/>
<g>
	<g>
		<path fill="#000000" d="M15,12v11.663l-3.258-1.304C11.359,22.207,11,21.66,11,21.417V12H15 M15,10h-4c-1.104,0-2,0.896-2,2v9.417
			c0,1.104,0.896,2.358,2,2.8l4,1.601c0.262,0.104,0.513,0.154,0.742,0.154c0.737,0,1.258-0.513,1.258-1.354V12
			C17,10.896,16.104,10,15,10L15,10z"/>
	</g>
</g>
<g>
	<path fill="#000000" d="M23.31,2l-7.2,8H9.891l-7.2-8H23.31 M24,0H2C0.896,0,0,0.896,0,2l9,10h8l9-10C26,0.896,25.104,0,24,0L24,0z
		"/>
</g>
</svg>
