<?xml version="1.0" encoding="utf-8"?>
<!-- Generator: Adobe Illustrator 19.0.0, SVG Export Plug-In . SVG Version: 6.00 Build 0)  -->
<svg version="1.1" id="Layer_1" xmlns="http://www.w3.org/2000/svg" xmlns:xlink="http://www.w3.org/1999/xlink" x="0px" y="0px"
	 viewBox="0 0 798 800" style="enable-background:new 0 0 798 800;" xml:space="preserve">
<style type="text/css">
	.st0{fill:#FFFFFF;}
	.st1{fill:#FEFEFE;}
	.st2{fill:#FDFDFD;}
	.st3{fill:#FCFCFC;}
	.st4{fill:#FBFBFB;}
	.st5{fill:#FAFAFA;}
	.st6{fill:#F9F9FA;}
	.st7{fill:#F8F8F9;}
	.st8{fill:#F7F8F8;}
	.st9{fill:#F6F7F7;}
	.st10{fill:#F5F6F6;}
	.st11{fill:#F4F5F5;}
	.st12{fill:#F3F4F4;}
	.st13{fill:#F2F3F3;}
	.st14{fill:#F1F2F2;}
	.st15{fill:#F0F1F1;}
	.st16{fill:#EFF0F0;}
	.st17{fill:#EEEFEF;}
	.st18{fill:#EDEEEF;}
	.st19{fill:#ECEDEE;}
	.st20{fill:#EBECED;}
	.st21{fill:#EAEBEC;}
	.st22{fill:#E9EAEB;}
	.st23{fill:#E8E9EA;}
	.st24{fill:#E8E9E9;}
	.st25{fill:#E7E8E8;}
	.st26{fill:#E6E7E7;}
	.st27{fill:#E5E6E6;}
	.st28{fill:#E4E5E5;}
	.st29{fill:#E3E4E4;}
	.st30{fill:#E2E3E4;}
	.st31{fill:#E1E2E3;}
	.st32{fill:#E0E1E2;}
	.st33{fill:#DFE0E1;}
	.st34{fill:#DEDFE0;}
	.st35{fill:#DDDEDF;}
	.st36{fill:#DCDDDE;}
	.st37{fill:#DBDCDD;}
	.st38{fill:#DADBDC;}
	.st39{fill:#D9DADB;}
	.st40{fill:#D8DADA;}
	.st41{fill:#D7D9D9;}
	.st42{fill:#D6D8D9;}
	.st43{fill:#D5D7D8;}
	.st44{fill:#D4D6D7;}
	.st45{fill:#D3D5D6;}
	.st46{fill:#D2D4D5;}
	.st47{fill:#D1D3D4;}
	.st48{fill:#00A79D;}
	.st49{fill:#96979B;}
	.st50{fill:#9FA0A4;}
	.st51{fill:#4C5974;}
	.st52{fill:#303942;}
	.st53{fill:#6B88B6;}
	.st54{fill:#1784A2;}
	.st55{fill:#2A526A;}
	.st56{fill:#00ACB4;}
	.st57{font-family:'OpenSans-Semibold';}
	.st58{font-size:16.1871px;}
	.st59{font-family:'OpenSans-Light';}
	.st60{font-size:32.3742px;}
	.st61{font-family:'OpenSans-Bold';}
	.st62{font-size:64.7484px;}
</style>
<g id="XMLID_364_">
	<g id="XMLID_890_">
		<path id="XMLID_316_" class="st0" d="M223.3,50.6H87.9c-18,0-32.5,14.6-32.5,32.5v97.6c0,18,14.6,32.5,32.5,32.5h135.4
			c18,0,32.5-14.6,32.5-32.5V83.1C255.8,65.1,241.3,50.6,223.3,50.6z"/>
		<path id="XMLID_362_" class="st1" d="M222.8,50H87.4c-18,0-32.5,14.6-32.5,32.5v97.6c0,18,14.6,32.5,32.5,32.5h135.4
			c18,0,32.5-14.6,32.5-32.5V82.6C255.3,64.6,240.7,50,222.8,50z"/>
		<path id="XMLID_361_" class="st2" d="M222.2,49.5H86.8c-18,0-32.5,14.6-32.5,32.5v97.6c0,18,14.6,32.5,32.5,32.5h135.4
			c18,0,32.5-14.6,32.5-32.5V82C254.8,64.1,240.2,49.5,222.2,49.5z"/>
		<path id="XMLID_360_" class="st3" d="M221.7,49H86.3c-18,0-32.5,14.6-32.5,32.5v97.6c0,18,14.6,32.5,32.5,32.5h135.4
			c18,0,32.5-14.6,32.5-32.5V81.5C254.2,63.6,239.7,49,221.7,49z"/>
		<path id="XMLID_359_" class="st4" d="M221.2,48.5H85.8c-18,0-32.5,14.6-32.5,32.5v97.6c0,18,14.6,32.5,32.5,32.5h135.4
			c18,0,32.5-14.6,32.5-32.5V81C253.7,63,239.1,48.5,221.2,48.5z"/>
		<path id="XMLID_358_" class="st5" d="M220.7,47.9H85.2c-18,0-32.5,14.6-32.5,32.5v97.6c0,18,14.6,32.5,32.5,32.5h135.4
			c18,0,32.5-14.6,32.5-32.5V80.5C253.2,62.5,238.6,47.9,220.7,47.9z"/>
		<path id="XMLID_357_" class="st6" d="M220.1,47.4H84.7c-18,0-32.5,14.6-32.5,32.5v97.6c0,18,14.6,32.5,32.5,32.5h135.4
			c18,0,32.5-14.6,32.5-32.5V79.9C252.7,62,238.1,47.4,220.1,47.4z"/>
		<path id="XMLID_356_" class="st7" d="M219.6,46.9H84.2c-18,0-32.5,14.6-32.5,32.5V177c0,18,14.6,32.5,32.5,32.5h135.4
			c18,0,32.5-14.6,32.5-32.5V79.4C252.1,61.4,237.6,46.9,219.6,46.9z"/>
		<path id="XMLID_355_" class="st8" d="M219.1,46.4H83.7c-18,0-32.5,14.6-32.5,32.5v97.6c0,18,14.6,32.5,32.5,32.5h135.4
			c18,0,32.5-14.6,32.5-32.5V78.9C251.6,60.9,237,46.4,219.1,46.4z"/>
		<path id="XMLID_354_" class="st9" d="M218.5,45.8H83.1c-18,0-32.5,14.6-32.5,32.5V176c0,18,14.6,32.5,32.5,32.5h135.4
			c18,0,32.5-14.6,32.5-32.5V78.4C251.1,60.4,236.5,45.8,218.5,45.8z"/>
		<path id="XMLID_353_" class="st10" d="M218,45.3H82.6c-18,0-32.5,14.6-32.5,32.5v97.6c0,18,14.6,32.5,32.5,32.5H218
			c18,0,32.5-14.6,32.5-32.5V77.8C250.5,59.9,236,45.3,218,45.3z"/>
		<path id="XMLID_352_" class="st11" d="M217.5,44.8H82.1c-18,0-32.5,14.6-32.5,32.5v97.6c0,18,14.6,32.5,32.5,32.5h135.4
			c18,0,32.5-14.6,32.5-32.5V77.3C250,59.3,235.5,44.8,217.5,44.8z"/>
		<path id="XMLID_351_" class="st12" d="M217,44.2H81.6c-18,0-32.5,14.6-32.5,32.5v97.6c0,18,14.6,32.5,32.5,32.5H217
			c18,0,32.5-14.6,32.5-32.5V76.8C249.5,58.8,234.9,44.2,217,44.2z"/>
		<path id="XMLID_350_" class="st13" d="M216.4,43.7H81c-18,0-32.5,14.6-32.5,32.5v97.6c0,18,14.6,32.5,32.5,32.5h135.4
			c18,0,32.5-14.6,32.5-32.5V76.2C249,58.3,234.4,43.7,216.4,43.7z"/>
		<path id="XMLID_349_" class="st14" d="M215.9,43.2H80.5c-18,0-32.5,14.6-32.5,32.5v97.6c0,18,14.6,32.5,32.5,32.5h135.4
			c18,0,32.5-14.6,32.5-32.5V75.7C248.4,57.8,233.9,43.2,215.9,43.2z"/>
		<path id="XMLID_348_" class="st15" d="M215.4,42.7H80c-18,0-32.5,14.6-32.5,32.5v97.6c0,18,14.6,32.5,32.5,32.5h135.4
			c18,0,32.5-14.6,32.5-32.5V75.2C247.9,57.2,233.3,42.7,215.4,42.7z"/>
		<path id="XMLID_347_" class="st16" d="M214.8,42.1H79.4c-18,0-32.5,14.6-32.5,32.5v97.6c0,18,14.6,32.5,32.5,32.5h135.4
			c18,0,32.5-14.6,32.5-32.5V74.7C247.4,56.7,232.8,42.1,214.8,42.1z"/>
		<path id="XMLID_346_" class="st17" d="M214.3,41.6H78.9c-18,0-32.5,14.6-32.5,32.5v97.6c0,18,14.6,32.5,32.5,32.5h135.4
			c18,0,32.5-14.6,32.5-32.5V74.1C246.9,56.2,232.3,41.6,214.3,41.6z"/>
		<path id="XMLID_345_" class="st18" d="M213.8,41.1H78.4c-18,0-32.5,14.6-32.5,32.5v97.6c0,18,14.6,32.5,32.5,32.5h135.4
			c18,0,32.5-14.6,32.5-32.5V73.6C246.3,55.6,231.8,41.1,213.8,41.1z"/>
		<path id="XMLID_344_" class="st19" d="M213.3,40.6H77.9c-18,0-32.5,14.6-32.5,32.5v97.6c0,18,14.6,32.5,32.5,32.5h135.4
			c18,0,32.5-14.6,32.5-32.5V73.1C245.8,55.1,231.2,40.6,213.3,40.6z"/>
		<path id="XMLID_343_" class="st20" d="M212.7,40H77.3c-18,0-32.5,14.6-32.5,32.5v97.6c0,18,14.6,32.5,32.5,32.5h135.4
			c18,0,32.5-14.6,32.5-32.5V72.6C245.3,54.6,230.7,40,212.7,40z"/>
		<path id="XMLID_342_" class="st21" d="M212.2,39.5H76.8c-18,0-32.5,14.6-32.5,32.5v97.6c0,18,14.6,32.5,32.5,32.5h135.4
			c18,0,32.5-14.6,32.5-32.5V72C244.7,54.1,230.2,39.5,212.2,39.5z"/>
		<path id="XMLID_341_" class="st22" d="M211.7,39H76.3c-18,0-32.5,14.6-32.5,32.5v97.6c0,18,14.6,32.5,32.5,32.5h135.4
			c18,0,32.5-14.6,32.5-32.5V71.5C244.2,53.5,229.6,39,211.7,39z"/>
		<path id="XMLID_340_" class="st23" d="M211.2,38.4H75.8c-18,0-32.5,14.6-32.5,32.5v97.6c0,18,14.6,32.5,32.5,32.5h135.4
			c18,0,32.5-14.6,32.5-32.5V71C243.7,53,229.1,38.4,211.2,38.4z"/>
		<path id="XMLID_339_" class="st24" d="M210.6,37.9H75.2c-18,0-32.5,14.6-32.5,32.5v97.6c0,18,14.6,32.5,32.5,32.5h135.4
			c18,0,32.5-14.6,32.5-32.5V70.4C243.2,52.5,228.6,37.9,210.6,37.9z"/>
		<path id="XMLID_338_" class="st25" d="M210.1,37.4H74.7c-18,0-32.5,14.6-32.5,32.5v97.6c0,18,14.6,32.5,32.5,32.5h135.4
			c18,0,32.5-14.6,32.5-32.5V69.9C242.6,52,228.1,37.4,210.1,37.4z"/>
		<path id="XMLID_337_" class="st26" d="M209.6,36.9H74.2c-18,0-32.5,14.6-32.5,32.5V167c0,18,14.6,32.5,32.5,32.5h135.4
			c18,0,32.5-14.6,32.5-32.5V69.4C242.1,51.4,227.5,36.9,209.6,36.9z"/>
		<path id="XMLID_336_" class="st27" d="M209,36.3H73.6c-18,0-32.5,14.6-32.5,32.5v97.6c0,18,14.6,32.5,32.5,32.5H209
			c18,0,32.5-14.6,32.5-32.5V68.9C241.6,50.9,227,36.3,209,36.3z"/>
		<path id="XMLID_335_" class="st28" d="M208.5,35.8H73.1c-18,0-32.5,14.6-32.5,32.5V166c0,18,14.6,32.5,32.5,32.5h135.4
			c18,0,32.5-14.6,32.5-32.5V68.3C241,50.4,226.5,35.8,208.5,35.8z"/>
		<path id="XMLID_334_" class="st29" d="M208,35.3H72.6c-18,0-32.5,14.6-32.5,32.5v97.6c0,18,14.6,32.5,32.5,32.5H208
			c18,0,32.5-14.6,32.5-32.5V67.8C240.5,49.8,226,35.3,208,35.3z"/>
		<path id="XMLID_333_" class="st30" d="M207.5,34.7H72.1c-18,0-32.5,14.6-32.5,32.5v97.6c0,18,14.6,32.5,32.5,32.5h135.4
			c18,0,32.5-14.6,32.5-32.5V67.3C240,49.3,225.4,34.7,207.5,34.7z"/>
		<path id="XMLID_332_" class="st31" d="M206.9,34.2H71.5c-18,0-32.5,14.6-32.5,32.5v97.6c0,18,14.6,32.5,32.5,32.5h135.4
			c18,0,32.5-14.6,32.5-32.5V66.8C239.5,48.8,224.9,34.2,206.9,34.2z"/>
		<path id="XMLID_331_" class="st32" d="M206.4,33.7H71c-18,0-32.5,14.6-32.5,32.5v97.6c0,18,14.6,32.5,32.5,32.5h135.4
			c18,0,32.5-14.6,32.5-32.5V66.2C238.9,48.3,224.4,33.7,206.4,33.7z"/>
		<path id="XMLID_330_" class="st33" d="M205.9,33.2H70.5c-18,0-32.5,14.6-32.5,32.5v97.6c0,18,14.6,32.5,32.5,32.5h135.4
			c18,0,32.5-14.6,32.5-32.5V65.7C238.4,47.7,223.8,33.2,205.9,33.2z"/>
		<path id="XMLID_329_" class="st34" d="M205.4,32.6H69.9c-18,0-32.5,14.6-32.5,32.5v97.6c0,18,14.6,32.5,32.5,32.5h135.4
			c18,0,32.5-14.6,32.5-32.5V65.2C237.9,47.2,223.3,32.6,205.4,32.6z"/>
		<path id="XMLID_328_" class="st35" d="M204.8,32.1H69.4c-18,0-32.5,14.6-32.5,32.5v97.6c0,18,14.6,32.5,32.5,32.5h135.4
			c18,0,32.5-14.6,32.5-32.5V64.6C237.4,46.7,222.8,32.1,204.8,32.1z"/>
		<path id="XMLID_327_" class="st36" d="M204.3,31.6H68.9c-18,0-32.5,14.6-32.5,32.5v97.6c0,18,14.6,32.5,32.5,32.5h135.4
			c18,0,32.5-14.6,32.5-32.5V64.1C236.8,46.1,222.3,31.6,204.3,31.6z"/>
		<path id="XMLID_326_" class="st37" d="M203.8,31.1H68.4c-18,0-32.5,14.6-32.5,32.5v97.6c0,18,14.6,32.5,32.5,32.5h135.4
			c18,0,32.5-14.6,32.5-32.5V63.6C236.3,45.6,221.7,31.1,203.8,31.1z"/>
		<path id="XMLID_325_" class="st38" d="M203.2,30.5H67.8c-18,0-32.5,14.6-32.5,32.5v97.6c0,18,14.6,32.5,32.5,32.5h135.4
			c18,0,32.5-14.6,32.5-32.5V63.1C235.8,45.1,221.2,30.5,203.2,30.5z"/>
		<path id="XMLID_324_" class="st39" d="M202.7,30H67.3c-18,0-32.5,14.6-32.5,32.5v97.6c0,18,14.6,32.5,32.5,32.5h135.4
			c18,0,32.5-14.6,32.5-32.5V62.5C235.2,44.6,220.7,30,202.7,30z"/>
		<path id="XMLID_323_" class="st40" d="M202.2,29.5H66.8c-18,0-32.5,14.6-32.5,32.5v97.6c0,18,14.6,32.5,32.5,32.5h135.4
			c18,0,32.5-14.6,32.5-32.5V62C234.7,44,220.2,29.5,202.2,29.5z"/>
		<path id="XMLID_322_" class="st41" d="M201.7,28.9H66.3c-18,0-32.5,14.6-32.5,32.5v97.6c0,18,14.6,32.5,32.5,32.5h135.4
			c18,0,32.5-14.6,32.5-32.5V61.5C234.2,43.5,219.6,28.9,201.7,28.9z"/>
		<path id="XMLID_321_" class="st42" d="M201.1,28.4H65.7c-18,0-32.5,14.6-32.5,32.5v97.6c0,18,14.6,32.5,32.5,32.5h135.4
			c18,0,32.5-14.6,32.5-32.5V60.9C233.7,43,219.1,28.4,201.1,28.4z"/>
		<path id="XMLID_320_" class="st43" d="M200.6,27.9H65.2c-18,0-32.5,14.6-32.5,32.5V158c0,18,14.6,32.5,32.5,32.5h135.4
			c18,0,32.5-14.6,32.5-32.5V60.4C233.1,42.5,218.6,27.9,200.6,27.9z"/>
		<path id="XMLID_319_" class="st44" d="M200.1,27.4H64.7c-18,0-32.5,14.6-32.5,32.5v97.6c0,18,14.6,32.5,32.5,32.5h135.4
			c18,0,32.5-14.6,32.5-32.5V59.9C232.6,41.9,218,27.4,200.1,27.4z"/>
		<path id="XMLID_318_" class="st45" d="M199.6,26.8H64.1c-18,0-32.5,14.6-32.5,32.5V157c0,18,14.6,32.5,32.5,32.5h135.4
			c18,0,32.5-14.6,32.5-32.5V59.4C232.1,41.4,217.5,26.8,199.6,26.8z"/>
		<path id="XMLID_317_" class="st46" d="M199,26.3H63.6c-18,0-32.5,14.6-32.5,32.5v97.6c0,18,14.6,32.5,32.5,32.5H199
			c18,0,32.5-14.6,32.5-32.5V58.8C231.6,40.9,217,26.3,199,26.3z"/>
		<path id="XMLID_315_" class="st47" d="M198.5,25.8H63.1c-18,0-32.5,14.6-32.5,32.5v97.6c0,18,14.6,32.5,32.5,32.5h135.4
			c18,0,32.5-14.6,32.5-32.5V58.3C231,40.3,216.5,25.8,198.5,25.8z"/>
	</g>
	<g id="XMLID_837_">
		<path id="XMLID_268_" class="st0" d="M486.3,50.6H350.9c-18,0-32.5,14.6-32.5,32.5v97.6c0,18,14.6,32.5,32.5,32.5h135.4
			c18,0,32.5-14.6,32.5-32.5V83.1C518.8,65.1,504.3,50.6,486.3,50.6z"/>
		<path id="XMLID_314_" class="st1" d="M485.8,50H350.4c-18,0-32.5,14.6-32.5,32.5v97.6c0,18,14.6,32.5,32.5,32.5h135.4
			c18,0,32.5-14.6,32.5-32.5V82.6C518.3,64.6,503.8,50,485.8,50z"/>
		<path id="XMLID_313_" class="st2" d="M485.3,49.5H349.9c-18,0-32.5,14.6-32.5,32.5v97.6c0,18,14.6,32.5,32.5,32.5h135.4
			c18,0,32.5-14.6,32.5-32.5V82C517.8,64.1,503.2,49.5,485.3,49.5z"/>
		<path id="XMLID_312_" class="st3" d="M484.7,49H349.3c-18,0-32.5,14.6-32.5,32.5v97.6c0,18,14.6,32.5,32.5,32.5h135.4
			c18,0,32.5-14.6,32.5-32.5V81.5C517.3,63.6,502.7,49,484.7,49z"/>
		<path id="XMLID_311_" class="st4" d="M484.2,48.5H348.8c-18,0-32.5,14.6-32.5,32.5v97.6c0,18,14.6,32.5,32.5,32.5h135.4
			c18,0,32.5-14.6,32.5-32.5V81C516.7,63,502.2,48.5,484.2,48.5z"/>
		<path id="XMLID_310_" class="st5" d="M483.7,47.9H348.3c-18,0-32.5,14.6-32.5,32.5v97.6c0,18,14.6,32.5,32.5,32.5h135.4
			c18,0,32.5-14.6,32.5-32.5V80.5C516.2,62.5,501.6,47.9,483.7,47.9z"/>
		<path id="XMLID_309_" class="st6" d="M483.2,47.4H347.7c-18,0-32.5,14.6-32.5,32.5v97.6c0,18,14.6,32.5,32.5,32.5h135.4
			c18,0,32.5-14.6,32.5-32.5V79.9C515.7,62,501.1,47.4,483.2,47.4z"/>
		<path id="XMLID_308_" class="st7" d="M482.6,46.9H347.2c-18,0-32.5,14.6-32.5,32.5V177c0,18,14.6,32.5,32.5,32.5h135.4
			c18,0,32.5-14.6,32.5-32.5V79.4C515.2,61.4,500.6,46.9,482.6,46.9z"/>
		<path id="XMLID_307_" class="st8" d="M482.1,46.4H346.7c-18,0-32.5,14.6-32.5,32.5v97.6c0,18,14.6,32.5,32.5,32.5h135.4
			c18,0,32.5-14.6,32.5-32.5V78.9C514.6,60.9,500.1,46.4,482.1,46.4z"/>
		<path id="XMLID_306_" class="st9" d="M481.6,45.8H346.2c-18,0-32.5,14.6-32.5,32.5V176c0,18,14.6,32.5,32.5,32.5h135.4
			c18,0,32.5-14.6,32.5-32.5V78.4C514.1,60.4,499.5,45.8,481.6,45.8z"/>
		<path id="XMLID_305_" class="st10" d="M481,45.3H345.6c-18,0-32.5,14.6-32.5,32.5v97.6c0,18,14.6,32.5,32.5,32.5H481
			c18,0,32.5-14.6,32.5-32.5V77.8C513.6,59.9,499,45.3,481,45.3z"/>
		<path id="XMLID_304_" class="st11" d="M480.5,44.8H345.1c-18,0-32.5,14.6-32.5,32.5v97.6c0,18,14.6,32.5,32.5,32.5h135.4
			c18,0,32.5-14.6,32.5-32.5V77.3C513,59.3,498.5,44.8,480.5,44.8z"/>
		<path id="XMLID_303_" class="st12" d="M480,44.2H344.6c-18,0-32.5,14.6-32.5,32.5v97.6c0,18,14.6,32.5,32.5,32.5H480
			c18,0,32.5-14.6,32.5-32.5V76.8C512.5,58.8,498,44.2,480,44.2z"/>
		<path id="XMLID_302_" class="st13" d="M479.5,43.7H344.1c-18,0-32.5,14.6-32.5,32.5v97.6c0,18,14.6,32.5,32.5,32.5h135.4
			c18,0,32.5-14.6,32.5-32.5V76.2C512,58.3,497.4,43.7,479.5,43.7z"/>
		<path id="XMLID_301_" class="st14" d="M478.9,43.2H343.5c-18,0-32.5,14.6-32.5,32.5v97.6c0,18,14.6,32.5,32.5,32.5h135.4
			c18,0,32.5-14.6,32.5-32.5V75.7C511.5,57.8,496.9,43.2,478.9,43.2z"/>
		<path id="XMLID_300_" class="st15" d="M478.4,42.7H343c-18,0-32.5,14.6-32.5,32.5v97.6c0,18,14.6,32.5,32.5,32.5h135.4
			c18,0,32.5-14.6,32.5-32.5V75.2C510.9,57.2,496.4,42.7,478.4,42.7z"/>
		<path id="XMLID_299_" class="st16" d="M477.9,42.1H342.5c-18,0-32.5,14.6-32.5,32.5v97.6c0,18,14.6,32.5,32.5,32.5h135.4
			c18,0,32.5-14.6,32.5-32.5V74.7C510.4,56.7,495.8,42.1,477.9,42.1z"/>
		<path id="XMLID_298_" class="st17" d="M477.3,41.6H341.9c-18,0-32.5,14.6-32.5,32.5v97.6c0,18,14.6,32.5,32.5,32.5h135.4
			c18,0,32.5-14.6,32.5-32.5V74.1C509.9,56.2,495.3,41.6,477.3,41.6z"/>
		<path id="XMLID_297_" class="st18" d="M476.8,41.1H341.4c-18,0-32.5,14.6-32.5,32.5v97.6c0,18,14.6,32.5,32.5,32.5h135.4
			c18,0,32.5-14.6,32.5-32.5V73.6C509.4,55.6,494.8,41.1,476.8,41.1z"/>
		<path id="XMLID_296_" class="st19" d="M476.3,40.6H340.9c-18,0-32.5,14.6-32.5,32.5v97.6c0,18,14.6,32.5,32.5,32.5h135.4
			c18,0,32.5-14.6,32.5-32.5V73.1C508.8,55.1,494.3,40.6,476.3,40.6z"/>
		<path id="XMLID_295_" class="st20" d="M475.8,40H340.4c-18,0-32.5,14.6-32.5,32.5v97.6c0,18,14.6,32.5,32.5,32.5h135.4
			c18,0,32.5-14.6,32.5-32.5V72.6C508.3,54.6,493.7,40,475.8,40z"/>
		<path id="XMLID_294_" class="st21" d="M475.2,39.5H339.8c-18,0-32.5,14.6-32.5,32.5v97.6c0,18,14.6,32.5,32.5,32.5h135.4
			c18,0,32.5-14.6,32.5-32.5V72C507.8,54.1,493.2,39.5,475.2,39.5z"/>
		<path id="XMLID_293_" class="st22" d="M474.7,39H339.3c-18,0-32.5,14.6-32.5,32.5v97.6c0,18,14.6,32.5,32.5,32.5h135.4
			c18,0,32.5-14.6,32.5-32.5V71.5C507.2,53.5,492.7,39,474.7,39z"/>
		<path id="XMLID_292_" class="st23" d="M474.2,38.4H338.8c-18,0-32.5,14.6-32.5,32.5v97.6c0,18,14.6,32.5,32.5,32.5h135.4
			c18,0,32.5-14.6,32.5-32.5V71C506.7,53,492.1,38.4,474.2,38.4z"/>
		<path id="XMLID_291_" class="st24" d="M473.7,37.9H338.3c-18,0-32.5,14.6-32.5,32.5v97.6c0,18,14.6,32.5,32.5,32.5h135.4
			c18,0,32.5-14.6,32.5-32.5V70.4C506.2,52.5,491.6,37.9,473.7,37.9z"/>
		<path id="XMLID_290_" class="st25" d="M473.1,37.4H337.7c-18,0-32.5,14.6-32.5,32.5v97.6c0,18,14.6,32.5,32.5,32.5h135.4
			c18,0,32.5-14.6,32.5-32.5V69.9C505.7,52,491.1,37.4,473.1,37.4z"/>
		<path id="XMLID_289_" class="st26" d="M472.6,36.9H337.2c-18,0-32.5,14.6-32.5,32.5V167c0,18,14.6,32.5,32.5,32.5h135.4
			c18,0,32.5-14.6,32.5-32.5V69.4C505.1,51.4,490.6,36.9,472.6,36.9z"/>
		<path id="XMLID_288_" class="st27" d="M472.1,36.3H336.7c-18,0-32.5,14.6-32.5,32.5v97.6c0,18,14.6,32.5,32.5,32.5h135.4
			c18,0,32.5-14.6,32.5-32.5V68.9C504.6,50.9,490,36.3,472.1,36.3z"/>
		<path id="XMLID_287_" class="st28" d="M471.5,35.8H336.1c-18,0-32.5,14.6-32.5,32.5V166c0,18,14.6,32.5,32.5,32.5h135.4
			c18,0,32.5-14.6,32.5-32.5V68.3C504.1,50.4,489.5,35.8,471.5,35.8z"/>
		<path id="XMLID_286_" class="st29" d="M471,35.3H335.6c-18,0-32.5,14.6-32.5,32.5v97.6c0,18,14.6,32.5,32.5,32.5H471
			c18,0,32.5-14.6,32.5-32.5V67.8C503.5,49.8,489,35.3,471,35.3z"/>
		<path id="XMLID_285_" class="st30" d="M470.5,34.7H335.1c-18,0-32.5,14.6-32.5,32.5v97.6c0,18,14.6,32.5,32.5,32.5h135.4
			c18,0,32.5-14.6,32.5-32.5V67.3C503,49.3,488.5,34.7,470.5,34.7z"/>
		<path id="XMLID_284_" class="st31" d="M470,34.2H334.6c-18,0-32.5,14.6-32.5,32.5v97.6c0,18,14.6,32.5,32.5,32.5H470
			c18,0,32.5-14.6,32.5-32.5V66.8C502.5,48.8,487.9,34.2,470,34.2z"/>
		<path id="XMLID_283_" class="st32" d="M469.4,33.7H334c-18,0-32.5,14.6-32.5,32.5v97.6c0,18,14.6,32.5,32.5,32.5h135.4
			c18,0,32.5-14.6,32.5-32.5V66.2C502,48.3,487.4,33.7,469.4,33.7z"/>
		<path id="XMLID_282_" class="st33" d="M468.9,33.2H333.5c-18,0-32.5,14.6-32.5,32.5v97.6c0,18,14.6,32.5,32.5,32.5h135.4
			c18,0,32.5-14.6,32.5-32.5V65.7C501.4,47.7,486.9,33.2,468.9,33.2z"/>
		<path id="XMLID_281_" class="st34" d="M468.4,32.6H333c-18,0-32.5,14.6-32.5,32.5v97.6c0,18,14.6,32.5,32.5,32.5h135.4
			c18,0,32.5-14.6,32.5-32.5V65.2C500.9,47.2,486.3,32.6,468.4,32.6z"/>
		<path id="XMLID_280_" class="st35" d="M467.9,32.1H332.5c-18,0-32.5,14.6-32.5,32.5v97.6c0,18,14.6,32.5,32.5,32.5h135.4
			c18,0,32.5-14.6,32.5-32.5V64.6C500.4,46.7,485.8,32.1,467.9,32.1z"/>
		<path id="XMLID_279_" class="st36" d="M467.3,31.6H331.9c-18,0-32.5,14.6-32.5,32.5v97.6c0,18,14.6,32.5,32.5,32.5h135.4
			c18,0,32.5-14.6,32.5-32.5V64.1C499.9,46.1,485.3,31.6,467.3,31.6z"/>
		<path id="XMLID_278_" class="st37" d="M466.8,31.1H331.4c-18,0-32.5,14.6-32.5,32.5v97.6c0,18,14.6,32.5,32.5,32.5h135.4
			c18,0,32.5-14.6,32.5-32.5V63.6C499.3,45.6,484.8,31.1,466.8,31.1z"/>
		<path id="XMLID_277_" class="st38" d="M466.3,30.5H330.9c-18,0-32.5,14.6-32.5,32.5v97.6c0,18,14.6,32.5,32.5,32.5h135.4
			c18,0,32.5-14.6,32.5-32.5V63.1C498.8,45.1,484.2,30.5,466.3,30.5z"/>
		<path id="XMLID_276_" class="st39" d="M465.7,30H330.3c-18,0-32.5,14.6-32.5,32.5v97.6c0,18,14.6,32.5,32.5,32.5h135.4
			c18,0,32.5-14.6,32.5-32.5V62.5C498.3,44.6,483.7,30,465.7,30z"/>
		<path id="XMLID_275_" class="st40" d="M465.2,29.5H329.8c-18,0-32.5,14.6-32.5,32.5v97.6c0,18,14.6,32.5,32.5,32.5h135.4
			c18,0,32.5-14.6,32.5-32.5V62C497.7,44,483.2,29.5,465.2,29.5z"/>
		<path id="XMLID_274_" class="st41" d="M464.7,28.9H329.3c-18,0-32.5,14.6-32.5,32.5v97.6c0,18,14.6,32.5,32.5,32.5h135.4
			c18,0,32.5-14.6,32.5-32.5V61.5C497.2,43.5,482.7,28.9,464.7,28.9z"/>
		<path id="XMLID_273_" class="st42" d="M464.2,28.4H328.8c-18,0-32.5,14.6-32.5,32.5v97.6c0,18,14.6,32.5,32.5,32.5h135.4
			c18,0,32.5-14.6,32.5-32.5V60.9C496.7,43,482.1,28.4,464.2,28.4z"/>
		<path id="XMLID_272_" class="st43" d="M463.6,27.9H328.2c-18,0-32.5,14.6-32.5,32.5V158c0,18,14.6,32.5,32.5,32.5h135.4
			c18,0,32.5-14.6,32.5-32.5V60.4C496.2,42.5,481.6,27.9,463.6,27.9z"/>
		<path id="XMLID_271_" class="st44" d="M463.1,27.4H327.7c-18,0-32.5,14.6-32.5,32.5v97.6c0,18,14.6,32.5,32.5,32.5h135.4
			c18,0,32.5-14.6,32.5-32.5V59.9C495.6,41.9,481.1,27.4,463.1,27.4z"/>
		<path id="XMLID_270_" class="st45" d="M462.6,26.8H327.2c-18,0-32.5,14.6-32.5,32.5V157c0,18,14.6,32.5,32.5,32.5h135.4
			c18,0,32.5-14.6,32.5-32.5V59.4C495.1,41.4,480.5,26.8,462.6,26.8z"/>
		<path id="XMLID_269_" class="st46" d="M462.1,26.3H326.6c-18,0-32.5,14.6-32.5,32.5v97.6c0,18,14.6,32.5,32.5,32.5h135.4
			c18,0,32.5-14.6,32.5-32.5V58.8C494.6,40.9,480,26.3,462.1,26.3z"/>
		<path id="XMLID_267_" class="st47" d="M461.5,25.8H326.1c-18,0-32.5,14.6-32.5,32.5v97.6c0,18,14.6,32.5,32.5,32.5h135.4
			c18,0,32.5-14.6,32.5-32.5V58.3C494.1,40.3,479.5,25.8,461.5,25.8z"/>
	</g>
	<g id="XMLID_784_">
		<path id="XMLID_220_" class="st0" d="M749.3,50.6H613.9c-18,0-32.5,14.6-32.5,32.5v97.6c0,18,14.6,32.5,32.5,32.5h135.4
			c18,0,32.5-14.6,32.5-32.5V83.1C781.9,65.1,767.3,50.6,749.3,50.6z"/>
		<path id="XMLID_266_" class="st1" d="M748.8,50H613.4c-18,0-32.5,14.6-32.5,32.5v97.6c0,18,14.6,32.5,32.5,32.5h135.4
			c18,0,32.5-14.6,32.5-32.5V82.6C781.3,64.6,766.8,50,748.8,50z"/>
		<path id="XMLID_265_" class="st2" d="M748.3,49.5H612.9c-18,0-32.5,14.6-32.5,32.5v97.6c0,18,14.6,32.5,32.5,32.5h135.4
			c18,0,32.5-14.6,32.5-32.5V82C780.8,64.1,766.3,49.5,748.3,49.5z"/>
		<path id="XMLID_264_" class="st3" d="M747.8,49H612.4c-18,0-32.5,14.6-32.5,32.5v97.6c0,18,14.6,32.5,32.5,32.5h135.4
			c18,0,32.5-14.6,32.5-32.5V81.5C780.3,63.6,765.7,49,747.8,49z"/>
		<path id="XMLID_263_" class="st4" d="M747.2,48.5H611.8c-18,0-32.5,14.6-32.5,32.5v97.6c0,18,14.6,32.5,32.5,32.5h135.4
			c18,0,32.5-14.6,32.5-32.5V81C779.8,63,765.2,48.5,747.2,48.5z"/>
		<path id="XMLID_262_" class="st5" d="M746.7,47.9H611.3c-18,0-32.5,14.6-32.5,32.5v97.6c0,18,14.6,32.5,32.5,32.5h135.4
			c18,0,32.5-14.6,32.5-32.5V80.5C779.2,62.5,764.7,47.9,746.7,47.9z"/>
		<path id="XMLID_261_" class="st6" d="M746.2,47.4H610.8c-18,0-32.5,14.6-32.5,32.5v97.6c0,18,14.6,32.5,32.5,32.5h135.4
			c18,0,32.5-14.6,32.5-32.5V79.9C778.7,62,764.1,47.4,746.2,47.4z"/>
		<path id="XMLID_260_" class="st7" d="M745.7,46.9H610.2c-18,0-32.5,14.6-32.5,32.5V177c0,18,14.6,32.5,32.5,32.5h135.4
			c18,0,32.5-14.6,32.5-32.5V79.4C778.2,61.4,763.6,46.9,745.7,46.9z"/>
		<path id="XMLID_259_" class="st8" d="M745.1,46.4H609.7c-18,0-32.5,14.6-32.5,32.5v97.6c0,18,14.6,32.5,32.5,32.5h135.4
			c18,0,32.5-14.6,32.5-32.5V78.9C777.7,60.9,763.1,46.4,745.1,46.4z"/>
		<path id="XMLID_258_" class="st9" d="M744.6,45.8H609.2c-18,0-32.5,14.6-32.5,32.5V176c0,18,14.6,32.5,32.5,32.5h135.4
			c18,0,32.5-14.6,32.5-32.5V78.4C777.1,60.4,762.6,45.8,744.6,45.8z"/>
		<path id="XMLID_257_" class="st10" d="M744.1,45.3H608.7c-18,0-32.5,14.6-32.5,32.5v97.6c0,18,14.6,32.5,32.5,32.5h135.4
			c18,0,32.5-14.6,32.5-32.5V77.8C776.6,59.9,762,45.3,744.1,45.3z"/>
		<path id="XMLID_256_" class="st11" d="M743.5,44.8H608.1c-18,0-32.5,14.6-32.5,32.5v97.6c0,18,14.6,32.5,32.5,32.5h135.4
			c18,0,32.5-14.6,32.5-32.5V77.3C776.1,59.3,761.5,44.8,743.5,44.8z"/>
		<path id="XMLID_255_" class="st12" d="M743,44.2H607.6c-18,0-32.5,14.6-32.5,32.5v97.6c0,18,14.6,32.5,32.5,32.5H743
			c18,0,32.5-14.6,32.5-32.5V76.8C775.5,58.8,761,44.2,743,44.2z"/>
		<path id="XMLID_254_" class="st13" d="M742.5,43.7H607.1c-18,0-32.5,14.6-32.5,32.5v97.6c0,18,14.6,32.5,32.5,32.5h135.4
			c18,0,32.5-14.6,32.5-32.5V76.2C775,58.3,760.5,43.7,742.5,43.7z"/>
		<path id="XMLID_253_" class="st14" d="M742,43.2H606.6c-18,0-32.5,14.6-32.5,32.5v97.6c0,18,14.6,32.5,32.5,32.5H742
			c18,0,32.5-14.6,32.5-32.5V75.7C774.5,57.8,759.9,43.2,742,43.2z"/>
		<path id="XMLID_252_" class="st15" d="M741.4,42.7H606c-18,0-32.5,14.6-32.5,32.5v97.6c0,18,14.6,32.5,32.5,32.5h135.4
			c18,0,32.5-14.6,32.5-32.5V75.2C774,57.2,759.4,42.7,741.4,42.7z"/>
		<path id="XMLID_251_" class="st16" d="M740.9,42.1H605.5c-18,0-32.5,14.6-32.5,32.5v97.6c0,18,14.6,32.5,32.5,32.5h135.4
			c18,0,32.5-14.6,32.5-32.5V74.7C773.4,56.7,758.9,42.1,740.9,42.1z"/>
		<path id="XMLID_250_" class="st17" d="M740.4,41.6H605c-18,0-32.5,14.6-32.5,32.5v97.6c0,18,14.6,32.5,32.5,32.5h135.4
			c18,0,32.5-14.6,32.5-32.5V74.1C772.9,56.2,758.3,41.6,740.4,41.6z"/>
		<path id="XMLID_249_" class="st18" d="M739.9,41.1H604.4c-18,0-32.5,14.6-32.5,32.5v97.6c0,18,14.6,32.5,32.5,32.5h135.4
			c18,0,32.5-14.6,32.5-32.5V73.6C772.4,55.6,757.8,41.1,739.9,41.1z"/>
		<path id="XMLID_248_" class="st19" d="M739.3,40.6H603.9c-18,0-32.5,14.6-32.5,32.5v97.6c0,18,14.6,32.5,32.5,32.5h135.4
			c18,0,32.5-14.6,32.5-32.5V73.1C771.9,55.1,757.3,40.6,739.3,40.6z"/>
		<path id="XMLID_247_" class="st20" d="M738.8,40H603.4c-18,0-32.5,14.6-32.5,32.5v97.6c0,18,14.6,32.5,32.5,32.5h135.4
			c18,0,32.5-14.6,32.5-32.5V72.6C771.3,54.6,756.8,40,738.8,40z"/>
		<path id="XMLID_246_" class="st21" d="M738.3,39.5H602.9c-18,0-32.5,14.6-32.5,32.5v97.6c0,18,14.6,32.5,32.5,32.5h135.4
			c18,0,32.5-14.6,32.5-32.5V72C770.8,54.1,756.2,39.5,738.3,39.5z"/>
		<path id="XMLID_245_" class="st22" d="M737.7,39H602.3c-18,0-32.5,14.6-32.5,32.5v97.6c0,18,14.6,32.5,32.5,32.5h135.4
			c18,0,32.5-14.6,32.5-32.5V71.5C770.3,53.5,755.7,39,737.7,39z"/>
		<path id="XMLID_244_" class="st23" d="M737.2,38.4H601.8c-18,0-32.5,14.6-32.5,32.5v97.6c0,18,14.6,32.5,32.5,32.5h135.4
			c18,0,32.5-14.6,32.5-32.5V71C769.7,53,755.2,38.4,737.2,38.4z"/>
		<path id="XMLID_243_" class="st24" d="M736.7,37.9H601.3c-18,0-32.5,14.6-32.5,32.5v97.6c0,18,14.6,32.5,32.5,32.5h135.4
			c18,0,32.5-14.6,32.5-32.5V70.4C769.2,52.5,754.7,37.9,736.7,37.9z"/>
		<path id="XMLID_242_" class="st25" d="M736.2,37.4H600.8c-18,0-32.5,14.6-32.5,32.5v97.6c0,18,14.6,32.5,32.5,32.5h135.4
			c18,0,32.5-14.6,32.5-32.5V69.9C768.7,52,754.1,37.4,736.2,37.4z"/>
		<path id="XMLID_241_" class="st26" d="M735.6,36.9H600.2c-18,0-32.5,14.6-32.5,32.5V167c0,18,14.6,32.5,32.5,32.5h135.4
			c18,0,32.5-14.6,32.5-32.5V69.4C768.2,51.4,753.6,36.9,735.6,36.9z"/>
		<path id="XMLID_240_" class="st27" d="M735.1,36.3H599.7c-18,0-32.5,14.6-32.5,32.5v97.6c0,18,14.6,32.5,32.5,32.5h135.4
			c18,0,32.5-14.6,32.5-32.5V68.9C767.6,50.9,753.1,36.3,735.1,36.3z"/>
		<path id="XMLID_239_" class="st28" d="M734.6,35.8H599.2c-18,0-32.5,14.6-32.5,32.5V166c0,18,14.6,32.5,32.5,32.5h135.4
			c18,0,32.5-14.6,32.5-32.5V68.3C767.1,50.4,752.5,35.8,734.6,35.8z"/>
		<path id="XMLID_238_" class="st29" d="M734,35.3H598.6c-18,0-32.5,14.6-32.5,32.5v97.6c0,18,14.6,32.5,32.5,32.5H734
			c18,0,32.5-14.6,32.5-32.5V67.8C766.6,49.8,752,35.3,734,35.3z"/>
		<path id="XMLID_237_" class="st30" d="M733.5,34.7H598.1c-18,0-32.5,14.6-32.5,32.5v97.6c0,18,14.6,32.5,32.5,32.5h135.4
			c18,0,32.5-14.6,32.5-32.5V67.3C766,49.3,751.5,34.7,733.5,34.7z"/>
		<path id="XMLID_236_" class="st31" d="M733,34.2H597.6c-18,0-32.5,14.6-32.5,32.5v97.6c0,18,14.6,32.5,32.5,32.5H733
			c18,0,32.5-14.6,32.5-32.5V66.8C765.5,48.8,751,34.2,733,34.2z"/>
		<path id="XMLID_235_" class="st32" d="M732.5,33.7H597.1c-18,0-32.5,14.6-32.5,32.5v97.6c0,18,14.6,32.5,32.5,32.5h135.4
			c18,0,32.5-14.6,32.5-32.5V66.2C765,48.3,750.4,33.7,732.5,33.7z"/>
		<path id="XMLID_234_" class="st33" d="M731.9,33.2H596.5c-18,0-32.5,14.6-32.5,32.5v97.6c0,18,14.6,32.5,32.5,32.5h135.4
			c18,0,32.5-14.6,32.5-32.5V65.7C764.5,47.7,749.9,33.2,731.9,33.2z"/>
		<path id="XMLID_233_" class="st34" d="M731.4,32.6H596c-18,0-32.5,14.6-32.5,32.5v97.6c0,18,14.6,32.5,32.5,32.5h135.4
			c18,0,32.5-14.6,32.5-32.5V65.2C763.9,47.2,749.4,32.6,731.4,32.6z"/>
		<path id="XMLID_232_" class="st35" d="M730.9,32.1H595.5c-18,0-32.5,14.6-32.5,32.5v97.6c0,18,14.6,32.5,32.5,32.5h135.4
			c18,0,32.5-14.6,32.5-32.5V64.6C763.4,46.7,748.8,32.1,730.9,32.1z"/>
		<path id="XMLID_231_" class="st36" d="M730.4,31.6H595c-18,0-32.5,14.6-32.5,32.5v97.6c0,18,14.6,32.5,32.5,32.5h135.4
			c18,0,32.5-14.6,32.5-32.5V64.1C762.9,46.1,748.3,31.6,730.4,31.6z"/>
		<path id="XMLID_230_" class="st37" d="M729.8,31.1H594.4c-18,0-32.5,14.6-32.5,32.5v97.6c0,18,14.6,32.5,32.5,32.5h135.4
			c18,0,32.5-14.6,32.5-32.5V63.6C762.4,45.6,747.8,31.1,729.8,31.1z"/>
		<path id="XMLID_229_" class="st38" d="M729.3,30.5H593.9c-18,0-32.5,14.6-32.5,32.5v97.6c0,18,14.6,32.5,32.5,32.5h135.4
			c18,0,32.5-14.6,32.5-32.5V63.1C761.8,45.1,747.3,30.5,729.3,30.5z"/>
		<path id="XMLID_228_" class="st39" d="M728.8,30H593.4c-18,0-32.5,14.6-32.5,32.5v97.6c0,18,14.6,32.5,32.5,32.5h135.4
			c18,0,32.5-14.6,32.5-32.5V62.5C761.3,44.6,746.7,30,728.8,30z"/>
		<path id="XMLID_227_" class="st40" d="M728.2,29.5H592.8c-18,0-32.5,14.6-32.5,32.5v97.6c0,18,14.6,32.5,32.5,32.5h135.4
			c18,0,32.5-14.6,32.5-32.5V62C760.8,44,746.2,29.5,728.2,29.5z"/>
		<path id="XMLID_226_" class="st41" d="M727.7,28.9H592.3c-18,0-32.5,14.6-32.5,32.5v97.6c0,18,14.6,32.5,32.5,32.5h135.4
			c18,0,32.5-14.6,32.5-32.5V61.5C760.2,43.5,745.7,28.9,727.7,28.9z"/>
		<path id="XMLID_225_" class="st42" d="M727.2,28.4H591.8c-18,0-32.5,14.6-32.5,32.5v97.6c0,18,14.6,32.5,32.5,32.5h135.4
			c18,0,32.5-14.6,32.5-32.5V60.9C759.7,43,745.2,28.4,727.2,28.4z"/>
		<path id="XMLID_224_" class="st43" d="M726.7,27.9H591.3c-18,0-32.5,14.6-32.5,32.5V158c0,18,14.6,32.5,32.5,32.5h135.4
			c18,0,32.5-14.6,32.5-32.5V60.4C759.2,42.5,744.6,27.9,726.7,27.9z"/>
		<path id="XMLID_223_" class="st44" d="M726.1,27.4H590.7c-18,0-32.5,14.6-32.5,32.5v97.6c0,18,14.6,32.5,32.5,32.5h135.4
			c18,0,32.5-14.6,32.5-32.5V59.9C758.7,41.9,744.1,27.4,726.1,27.4z"/>
		<path id="XMLID_222_" class="st45" d="M725.6,26.8H590.2c-18,0-32.5,14.6-32.5,32.5V157c0,18,14.6,32.5,32.5,32.5h135.4
			c18,0,32.5-14.6,32.5-32.5V59.4C758.1,41.4,743.6,26.8,725.6,26.8z"/>
		<path id="XMLID_221_" class="st46" d="M725.1,26.3H589.7c-18,0-32.5,14.6-32.5,32.5v97.6c0,18,14.6,32.5,32.5,32.5h135.4
			c18,0,32.5-14.6,32.5-32.5V58.8C757.6,40.9,743,26.3,725.1,26.3z"/>
		<path id="XMLID_219_" class="st47" d="M724.6,25.8H589.1c-18,0-32.5,14.6-32.5,32.5v97.6c0,18,14.6,32.5,32.5,32.5h135.4
			c18,0,32.5-14.6,32.5-32.5V58.3C757.1,40.3,742.5,25.8,724.6,25.8z"/>
	</g>
	<g id="XMLID_731_">
		<path id="XMLID_172_" class="st0" d="M223.3,604.2H87.9c-18,0-32.5,14.6-32.5,32.5v97.6c0,18,14.6,32.5,32.5,32.5h135.4
			c18,0,32.5-14.6,32.5-32.5v-97.6C255.8,618.7,241.3,604.2,223.3,604.2z"/>
		<path id="XMLID_218_" class="st1" d="M222.8,603.6H87.4c-18,0-32.5,14.6-32.5,32.5v97.6c0,18,14.6,32.5,32.5,32.5h135.4
			c18,0,32.5-14.6,32.5-32.5v-97.6C255.3,618.2,240.7,603.6,222.8,603.6z"/>
		<path id="XMLID_217_" class="st2" d="M222.2,603.1H86.8c-18,0-32.5,14.6-32.5,32.5v97.6c0,18,14.6,32.5,32.5,32.5h135.4
			c18,0,32.5-14.6,32.5-32.5v-97.6C254.8,617.7,240.2,603.1,222.2,603.1z"/>
		<path id="XMLID_216_" class="st3" d="M221.7,602.6H86.3c-18,0-32.5,14.6-32.5,32.5v97.6c0,18,14.6,32.5,32.5,32.5h135.4
			c18,0,32.5-14.6,32.5-32.5v-97.6C254.2,617.2,239.7,602.6,221.7,602.6z"/>
		<path id="XMLID_215_" class="st4" d="M221.2,602.1H85.8c-18,0-32.5,14.6-32.5,32.5v97.6c0,18,14.6,32.5,32.5,32.5h135.4
			c18,0,32.5-14.6,32.5-32.5v-97.6C253.7,616.6,239.1,602.1,221.2,602.1z"/>
		<path id="XMLID_214_" class="st5" d="M220.7,601.5H85.2c-18,0-32.5,14.6-32.5,32.5v97.6c0,18,14.6,32.5,32.5,32.5h135.4
			c18,0,32.5-14.6,32.5-32.5v-97.6C253.2,616.1,238.6,601.5,220.7,601.5z"/>
		<path id="XMLID_213_" class="st6" d="M220.1,601H84.7c-18,0-32.5,14.6-32.5,32.5v97.6c0,18,14.6,32.5,32.5,32.5h135.4
			c18,0,32.5-14.6,32.5-32.5v-97.6C252.7,615.6,238.1,601,220.1,601z"/>
		<path id="XMLID_212_" class="st7" d="M219.6,600.5H84.2c-18,0-32.5,14.6-32.5,32.5v97.6c0,18,14.6,32.5,32.5,32.5h135.4
			c18,0,32.5-14.6,32.5-32.5V633C252.1,615,237.6,600.5,219.6,600.5z"/>
		<path id="XMLID_211_" class="st8" d="M219.1,600H83.7c-18,0-32.5,14.6-32.5,32.5v97.6c0,18,14.6,32.5,32.5,32.5h135.4
			c18,0,32.5-14.6,32.5-32.5v-97.6C251.6,614.5,237,600,219.1,600z"/>
		<path id="XMLID_210_" class="st9" d="M218.5,599.4H83.1c-18,0-32.5,14.6-32.5,32.5v97.6c0,18,14.6,32.5,32.5,32.5h135.4
			c18,0,32.5-14.6,32.5-32.5V632C251.1,614,236.5,599.4,218.5,599.4z"/>
		<path id="XMLID_209_" class="st10" d="M218,598.9H82.6c-18,0-32.5,14.6-32.5,32.5v97.6c0,18,14.6,32.5,32.5,32.5H218
			c18,0,32.5-14.6,32.5-32.5v-97.6C250.5,613.5,236,598.9,218,598.9z"/>
		<path id="XMLID_208_" class="st11" d="M217.5,598.4H82.1c-18,0-32.5,14.6-32.5,32.5v97.6c0,18,14.6,32.5,32.5,32.5h135.4
			c18,0,32.5-14.6,32.5-32.5v-97.6C250,612.9,235.5,598.4,217.5,598.4z"/>
		<path id="XMLID_207_" class="st12" d="M217,597.8H81.6c-18,0-32.5,14.6-32.5,32.5V728c0,18,14.6,32.5,32.5,32.5H217
			c18,0,32.5-14.6,32.5-32.5v-97.6C249.5,612.4,234.9,597.8,217,597.8z"/>
		<path id="XMLID_206_" class="st13" d="M216.4,597.3H81c-18,0-32.5,14.6-32.5,32.5v97.6c0,18,14.6,32.5,32.5,32.5h135.4
			c18,0,32.5-14.6,32.5-32.5v-97.6C249,611.9,234.4,597.3,216.4,597.3z"/>
		<path id="XMLID_205_" class="st14" d="M215.9,596.8H80.5c-18,0-32.5,14.6-32.5,32.5v97.6c0,18,14.6,32.5,32.5,32.5h135.4
			c18,0,32.5-14.6,32.5-32.5v-97.6C248.4,611.4,233.9,596.8,215.9,596.8z"/>
		<path id="XMLID_204_" class="st15" d="M215.4,596.3H80c-18,0-32.5,14.6-32.5,32.5v97.6c0,18,14.6,32.5,32.5,32.5h135.4
			c18,0,32.5-14.6,32.5-32.5v-97.6C247.9,610.8,233.3,596.3,215.4,596.3z"/>
		<path id="XMLID_203_" class="st16" d="M214.8,595.7H79.4c-18,0-32.5,14.6-32.5,32.5v97.6c0,18,14.6,32.5,32.5,32.5h135.4
			c18,0,32.5-14.6,32.5-32.5v-97.6C247.4,610.3,232.8,595.7,214.8,595.7z"/>
		<path id="XMLID_202_" class="st17" d="M214.3,595.2H78.9c-18,0-32.5,14.6-32.5,32.5v97.6c0,18,14.6,32.5,32.5,32.5h135.4
			c18,0,32.5-14.6,32.5-32.5v-97.6C246.9,609.8,232.3,595.2,214.3,595.2z"/>
		<path id="XMLID_201_" class="st18" d="M213.8,594.7H78.4c-18,0-32.5,14.6-32.5,32.5v97.6c0,18,14.6,32.5,32.5,32.5h135.4
			c18,0,32.5-14.6,32.5-32.5v-97.6C246.3,609.2,231.8,594.7,213.8,594.7z"/>
		<path id="XMLID_200_" class="st19" d="M213.3,594.2H77.9c-18,0-32.5,14.6-32.5,32.5v97.6c0,18,14.6,32.5,32.5,32.5h135.4
			c18,0,32.5-14.6,32.5-32.5v-97.6C245.8,608.7,231.2,594.2,213.3,594.2z"/>
		<path id="XMLID_199_" class="st20" d="M212.7,593.6H77.3c-18,0-32.5,14.6-32.5,32.5v97.6c0,18,14.6,32.5,32.5,32.5h135.4
			c18,0,32.5-14.6,32.5-32.5v-97.6C245.3,608.2,230.7,593.6,212.7,593.6z"/>
		<path id="XMLID_198_" class="st21" d="M212.2,593.1H76.8c-18,0-32.5,14.6-32.5,32.5v97.6c0,18,14.6,32.5,32.5,32.5h135.4
			c18,0,32.5-14.6,32.5-32.5v-97.6C244.7,607.7,230.2,593.1,212.2,593.1z"/>
		<path id="XMLID_197_" class="st22" d="M211.7,592.6H76.3c-18,0-32.5,14.6-32.5,32.5v97.6c0,18,14.6,32.5,32.5,32.5h135.4
			c18,0,32.5-14.6,32.5-32.5v-97.6C244.2,607.1,229.6,592.6,211.7,592.6z"/>
		<path id="XMLID_196_" class="st23" d="M211.2,592H75.8c-18,0-32.5,14.6-32.5,32.5v97.6c0,18,14.6,32.5,32.5,32.5h135.4
			c18,0,32.5-14.6,32.5-32.5v-97.6C243.7,606.6,229.1,592,211.2,592z"/>
		<path id="XMLID_195_" class="st24" d="M210.6,591.5H75.2c-18,0-32.5,14.6-32.5,32.5v97.6c0,18,14.6,32.5,32.5,32.5h135.4
			c18,0,32.5-14.6,32.5-32.5V624C243.2,606.1,228.6,591.5,210.6,591.5z"/>
		<path id="XMLID_194_" class="st25" d="M210.1,591H74.7c-18,0-32.5,14.6-32.5,32.5v97.6c0,18,14.6,32.5,32.5,32.5h135.4
			c18,0,32.5-14.6,32.5-32.5v-97.6C242.6,605.6,228.1,591,210.1,591z"/>
		<path id="XMLID_193_" class="st26" d="M209.6,590.5H74.2c-18,0-32.5,14.6-32.5,32.5v97.6c0,18,14.6,32.5,32.5,32.5h135.4
			c18,0,32.5-14.6,32.5-32.5V623C242.1,605,227.5,590.5,209.6,590.5z"/>
		<path id="XMLID_192_" class="st27" d="M209,589.9H73.6c-18,0-32.5,14.6-32.5,32.5v97.6c0,18,14.6,32.5,32.5,32.5H209
			c18,0,32.5-14.6,32.5-32.5v-97.6C241.6,604.5,227,589.9,209,589.9z"/>
		<path id="XMLID_191_" class="st28" d="M208.5,589.4H73.1c-18,0-32.5,14.6-32.5,32.5v97.6c0,18,14.6,32.5,32.5,32.5h135.4
			c18,0,32.5-14.6,32.5-32.5v-97.6C241,604,226.5,589.4,208.5,589.4z"/>
		<path id="XMLID_190_" class="st29" d="M208,588.9H72.6c-18,0-32.5,14.6-32.5,32.5V719c0,18,14.6,32.5,32.5,32.5H208
			c18,0,32.5-14.6,32.5-32.5v-97.6C240.5,603.4,226,588.9,208,588.9z"/>
		<path id="XMLID_189_" class="st30" d="M207.5,588.4H72.1c-18,0-32.5,14.6-32.5,32.5v97.6c0,18,14.6,32.5,32.5,32.5h135.4
			c18,0,32.5-14.6,32.5-32.5v-97.6C240,602.9,225.4,588.4,207.5,588.4z"/>
		<path id="XMLID_188_" class="st31" d="M206.9,587.8H71.5c-18,0-32.5,14.6-32.5,32.5V718c0,18,14.6,32.5,32.5,32.5h135.4
			c18,0,32.5-14.6,32.5-32.5v-97.6C239.5,602.4,224.9,587.8,206.9,587.8z"/>
		<path id="XMLID_187_" class="st32" d="M206.4,587.3H71c-18,0-32.5,14.6-32.5,32.5v97.6c0,18,14.6,32.5,32.5,32.5h135.4
			c18,0,32.5-14.6,32.5-32.5v-97.6C238.9,601.9,224.4,587.3,206.4,587.3z"/>
		<path id="XMLID_186_" class="st33" d="M205.9,586.8H70.5c-18,0-32.5,14.6-32.5,32.5v97.6c0,18,14.6,32.5,32.5,32.5h135.4
			c18,0,32.5-14.6,32.5-32.5v-97.6C238.4,601.3,223.8,586.8,205.9,586.8z"/>
		<path id="XMLID_185_" class="st34" d="M205.4,586.2H69.9c-18,0-32.5,14.6-32.5,32.5v97.6c0,18,14.6,32.5,32.5,32.5h135.4
			c18,0,32.5-14.6,32.5-32.5v-97.6C237.9,600.8,223.3,586.2,205.4,586.2z"/>
		<path id="XMLID_184_" class="st35" d="M204.8,585.7H69.4c-18,0-32.5,14.6-32.5,32.5v97.6c0,18,14.6,32.5,32.5,32.5h135.4
			c18,0,32.5-14.6,32.5-32.5v-97.6C237.4,600.3,222.8,585.7,204.8,585.7z"/>
		<path id="XMLID_183_" class="st36" d="M204.3,585.2H68.9c-18,0-32.5,14.6-32.5,32.5v97.6c0,18,14.6,32.5,32.5,32.5h135.4
			c18,0,32.5-14.6,32.5-32.5v-97.6C236.8,599.7,222.3,585.2,204.3,585.2z"/>
		<path id="XMLID_182_" class="st37" d="M203.8,584.7H68.4c-18,0-32.5,14.6-32.5,32.5v97.6c0,18,14.6,32.5,32.5,32.5h135.4
			c18,0,32.5-14.6,32.5-32.5v-97.6C236.3,599.2,221.7,584.7,203.8,584.7z"/>
		<path id="XMLID_181_" class="st38" d="M203.2,584.1H67.8c-18,0-32.5,14.6-32.5,32.5v97.6c0,18,14.6,32.5,32.5,32.5h135.4
			c18,0,32.5-14.6,32.5-32.5v-97.6C235.8,598.7,221.2,584.1,203.2,584.1z"/>
		<path id="XMLID_180_" class="st39" d="M202.7,583.6H67.3c-18,0-32.5,14.6-32.5,32.5v97.6c0,18,14.6,32.5,32.5,32.5h135.4
			c18,0,32.5-14.6,32.5-32.5v-97.6C235.2,598.2,220.7,583.6,202.7,583.6z"/>
		<path id="XMLID_179_" class="st40" d="M202.2,583.1H66.8c-18,0-32.5,14.6-32.5,32.5v97.6c0,18,14.6,32.5,32.5,32.5h135.4
			c18,0,32.5-14.6,32.5-32.5v-97.6C234.7,597.6,220.2,583.1,202.2,583.1z"/>
		<path id="XMLID_178_" class="st41" d="M201.7,582.5H66.3c-18,0-32.5,14.6-32.5,32.5v97.6c0,18,14.6,32.5,32.5,32.5h135.4
			c18,0,32.5-14.6,32.5-32.5v-97.6C234.2,597.1,219.6,582.5,201.7,582.5z"/>
		<path id="XMLID_177_" class="st42" d="M201.1,582H65.7c-18,0-32.5,14.6-32.5,32.5v97.6c0,18,14.6,32.5,32.5,32.5h135.4
			c18,0,32.5-14.6,32.5-32.5v-97.6C233.7,596.6,219.1,582,201.1,582z"/>
		<path id="XMLID_176_" class="st43" d="M200.6,581.5H65.2c-18,0-32.5,14.6-32.5,32.5v97.6c0,18,14.6,32.5,32.5,32.5h135.4
			c18,0,32.5-14.6,32.5-32.5V614C233.1,596.1,218.6,581.5,200.6,581.5z"/>
		<path id="XMLID_175_" class="st44" d="M200.1,581H64.7c-18,0-32.5,14.6-32.5,32.5v97.6c0,18,14.6,32.5,32.5,32.5h135.4
			c18,0,32.5-14.6,32.5-32.5v-97.6C232.6,595.5,218,581,200.1,581z"/>
		<path id="XMLID_174_" class="st45" d="M199.6,580.4H64.1c-18,0-32.5,14.6-32.5,32.5v97.6c0,18,14.6,32.5,32.5,32.5h135.4
			c18,0,32.5-14.6,32.5-32.5V613C232.1,595,217.5,580.4,199.6,580.4z"/>
		<path id="XMLID_173_" class="st46" d="M199,579.9H63.6c-18,0-32.5,14.6-32.5,32.5v97.6c0,18,14.6,32.5,32.5,32.5H199
			c18,0,32.5-14.6,32.5-32.5v-97.6C231.6,594.5,217,579.9,199,579.9z"/>
		<path id="XMLID_171_" class="st47" d="M198.5,579.4H63.1c-18,0-32.5,14.6-32.5,32.5v97.6c0,18,14.6,32.5,32.5,32.5h135.4
			c18,0,32.5-14.6,32.5-32.5v-97.6C231,593.9,216.5,579.4,198.5,579.4z"/>
	</g>
	<g id="XMLID_678_">
		<path id="XMLID_124_" class="st0" d="M486.3,604.2H350.9c-18,0-32.5,14.6-32.5,32.5v97.6c0,18,14.6,32.5,32.5,32.5h135.4
			c18,0,32.5-14.6,32.5-32.5v-97.6C518.8,618.7,504.3,604.2,486.3,604.2z"/>
		<path id="XMLID_170_" class="st1" d="M485.8,603.6H350.4c-18,0-32.5,14.6-32.5,32.5v97.6c0,18,14.6,32.5,32.5,32.5h135.4
			c18,0,32.5-14.6,32.5-32.5v-97.6C518.3,618.2,503.8,603.6,485.8,603.6z"/>
		<path id="XMLID_169_" class="st2" d="M485.3,603.1H349.9c-18,0-32.5,14.6-32.5,32.5v97.6c0,18,14.6,32.5,32.5,32.5h135.4
			c18,0,32.5-14.6,32.5-32.5v-97.6C517.8,617.7,503.2,603.1,485.3,603.1z"/>
		<path id="XMLID_168_" class="st3" d="M484.7,602.6H349.3c-18,0-32.5,14.6-32.5,32.5v97.6c0,18,14.6,32.5,32.5,32.5h135.4
			c18,0,32.5-14.6,32.5-32.5v-97.6C517.3,617.2,502.7,602.6,484.7,602.6z"/>
		<path id="XMLID_167_" class="st4" d="M484.2,602.1H348.8c-18,0-32.5,14.6-32.5,32.5v97.6c0,18,14.6,32.5,32.5,32.5h135.4
			c18,0,32.5-14.6,32.5-32.5v-97.6C516.7,616.6,502.2,602.1,484.2,602.1z"/>
		<path id="XMLID_166_" class="st5" d="M483.7,601.5H348.3c-18,0-32.5,14.6-32.5,32.5v97.6c0,18,14.6,32.5,32.5,32.5h135.4
			c18,0,32.5-14.6,32.5-32.5v-97.6C516.2,616.1,501.6,601.5,483.7,601.5z"/>
		<path id="XMLID_165_" class="st6" d="M483.2,601H347.7c-18,0-32.5,14.6-32.5,32.5v97.6c0,18,14.6,32.5,32.5,32.5h135.4
			c18,0,32.5-14.6,32.5-32.5v-97.6C515.7,615.6,501.1,601,483.2,601z"/>
		<path id="XMLID_164_" class="st7" d="M482.6,600.5H347.2c-18,0-32.5,14.6-32.5,32.5v97.6c0,18,14.6,32.5,32.5,32.5h135.4
			c18,0,32.5-14.6,32.5-32.5V633C515.2,615,500.6,600.5,482.6,600.5z"/>
		<path id="XMLID_163_" class="st8" d="M482.1,600H346.7c-18,0-32.5,14.6-32.5,32.5v97.6c0,18,14.6,32.5,32.5,32.5h135.4
			c18,0,32.5-14.6,32.5-32.5v-97.6C514.6,614.5,500.1,600,482.1,600z"/>
		<path id="XMLID_162_" class="st9" d="M481.6,599.4H346.2c-18,0-32.5,14.6-32.5,32.5v97.6c0,18,14.6,32.5,32.5,32.5h135.4
			c18,0,32.5-14.6,32.5-32.5V632C514.1,614,499.5,599.4,481.6,599.4z"/>
		<path id="XMLID_161_" class="st10" d="M481,598.9H345.6c-18,0-32.5,14.6-32.5,32.5v97.6c0,18,14.6,32.5,32.5,32.5H481
			c18,0,32.5-14.6,32.5-32.5v-97.6C513.6,613.5,499,598.9,481,598.9z"/>
		<path id="XMLID_160_" class="st11" d="M480.5,598.4H345.1c-18,0-32.5,14.6-32.5,32.5v97.6c0,18,14.6,32.5,32.5,32.5h135.4
			c18,0,32.5-14.6,32.5-32.5v-97.6C513,612.9,498.5,598.4,480.5,598.4z"/>
		<path id="XMLID_159_" class="st12" d="M480,597.8H344.6c-18,0-32.5,14.6-32.5,32.5V728c0,18,14.6,32.5,32.5,32.5H480
			c18,0,32.5-14.6,32.5-32.5v-97.6C512.5,612.4,498,597.8,480,597.8z"/>
		<path id="XMLID_158_" class="st13" d="M479.5,597.3H344.1c-18,0-32.5,14.6-32.5,32.5v97.6c0,18,14.6,32.5,32.5,32.5h135.4
			c18,0,32.5-14.6,32.5-32.5v-97.6C512,611.9,497.4,597.3,479.5,597.3z"/>
		<path id="XMLID_157_" class="st14" d="M478.9,596.8H343.5c-18,0-32.5,14.6-32.5,32.5v97.6c0,18,14.6,32.5,32.5,32.5h135.4
			c18,0,32.5-14.6,32.5-32.5v-97.6C511.5,611.4,496.9,596.8,478.9,596.8z"/>
		<path id="XMLID_156_" class="st15" d="M478.4,596.3H343c-18,0-32.5,14.6-32.5,32.5v97.6c0,18,14.6,32.5,32.5,32.5h135.4
			c18,0,32.5-14.6,32.5-32.5v-97.6C510.9,610.8,496.4,596.3,478.4,596.3z"/>
		<path id="XMLID_155_" class="st16" d="M477.9,595.7H342.5c-18,0-32.5,14.6-32.5,32.5v97.6c0,18,14.6,32.5,32.5,32.5h135.4
			c18,0,32.5-14.6,32.5-32.5v-97.6C510.4,610.3,495.8,595.7,477.9,595.7z"/>
		<path id="XMLID_154_" class="st17" d="M477.3,595.2H341.9c-18,0-32.5,14.6-32.5,32.5v97.6c0,18,14.6,32.5,32.5,32.5h135.4
			c18,0,32.5-14.6,32.5-32.5v-97.6C509.9,609.8,495.3,595.2,477.3,595.2z"/>
		<path id="XMLID_153_" class="st18" d="M476.8,594.7H341.4c-18,0-32.5,14.6-32.5,32.5v97.6c0,18,14.6,32.5,32.5,32.5h135.4
			c18,0,32.5-14.6,32.5-32.5v-97.6C509.4,609.2,494.8,594.7,476.8,594.7z"/>
		<path id="XMLID_152_" class="st19" d="M476.3,594.2H340.9c-18,0-32.5,14.6-32.5,32.5v97.6c0,18,14.6,32.5,32.5,32.5h135.4
			c18,0,32.5-14.6,32.5-32.5v-97.6C508.8,608.7,494.3,594.2,476.3,594.2z"/>
		<path id="XMLID_151_" class="st20" d="M475.8,593.6H340.4c-18,0-32.5,14.6-32.5,32.5v97.6c0,18,14.6,32.5,32.5,32.5h135.4
			c18,0,32.5-14.6,32.5-32.5v-97.6C508.3,608.2,493.7,593.6,475.8,593.6z"/>
		<path id="XMLID_150_" class="st21" d="M475.2,593.1H339.8c-18,0-32.5,14.6-32.5,32.5v97.6c0,18,14.6,32.5,32.5,32.5h135.4
			c18,0,32.5-14.6,32.5-32.5v-97.6C507.8,607.7,493.2,593.1,475.2,593.1z"/>
		<path id="XMLID_149_" class="st22" d="M474.7,592.6H339.3c-18,0-32.5,14.6-32.5,32.5v97.6c0,18,14.6,32.5,32.5,32.5h135.4
			c18,0,32.5-14.6,32.5-32.5v-97.6C507.2,607.1,492.7,592.6,474.7,592.6z"/>
		<path id="XMLID_148_" class="st23" d="M474.2,592H338.8c-18,0-32.5,14.6-32.5,32.5v97.6c0,18,14.6,32.5,32.5,32.5h135.4
			c18,0,32.5-14.6,32.5-32.5v-97.6C506.7,606.6,492.1,592,474.2,592z"/>
		<path id="XMLID_147_" class="st24" d="M473.7,591.5H338.3c-18,0-32.5,14.6-32.5,32.5v97.6c0,18,14.6,32.5,32.5,32.5h135.4
			c18,0,32.5-14.6,32.5-32.5V624C506.2,606.1,491.6,591.5,473.7,591.5z"/>
		<path id="XMLID_146_" class="st25" d="M473.1,591H337.7c-18,0-32.5,14.6-32.5,32.5v97.6c0,18,14.6,32.5,32.5,32.5h135.4
			c18,0,32.5-14.6,32.5-32.5v-97.6C505.7,605.6,491.1,591,473.1,591z"/>
		<path id="XMLID_145_" class="st26" d="M472.6,590.5H337.2c-18,0-32.5,14.6-32.5,32.5v97.6c0,18,14.6,32.5,32.5,32.5h135.4
			c18,0,32.5-14.6,32.5-32.5V623C505.1,605,490.6,590.5,472.6,590.5z"/>
		<path id="XMLID_144_" class="st27" d="M472.1,589.9H336.7c-18,0-32.5,14.6-32.5,32.5v97.6c0,18,14.6,32.5,32.5,32.5h135.4
			c18,0,32.5-14.6,32.5-32.5v-97.6C504.6,604.5,490,589.9,472.1,589.9z"/>
		<path id="XMLID_143_" class="st28" d="M471.5,589.4H336.1c-18,0-32.5,14.6-32.5,32.5v97.6c0,18,14.6,32.5,32.5,32.5h135.4
			c18,0,32.5-14.6,32.5-32.5v-97.6C504.1,604,489.5,589.4,471.5,589.4z"/>
		<path id="XMLID_142_" class="st29" d="M471,588.9H335.6c-18,0-32.5,14.6-32.5,32.5V719c0,18,14.6,32.5,32.5,32.5H471
			c18,0,32.5-14.6,32.5-32.5v-97.6C503.5,603.4,489,588.9,471,588.9z"/>
		<path id="XMLID_141_" class="st30" d="M470.5,588.4H335.1c-18,0-32.5,14.6-32.5,32.5v97.6c0,18,14.6,32.5,32.5,32.5h135.4
			c18,0,32.5-14.6,32.5-32.5v-97.6C503,602.9,488.5,588.4,470.5,588.4z"/>
		<path id="XMLID_140_" class="st31" d="M470,587.8H334.6c-18,0-32.5,14.6-32.5,32.5V718c0,18,14.6,32.5,32.5,32.5H470
			c18,0,32.5-14.6,32.5-32.5v-97.6C502.5,602.4,487.9,587.8,470,587.8z"/>
		<path id="XMLID_139_" class="st32" d="M469.4,587.3H334c-18,0-32.5,14.6-32.5,32.5v97.6c0,18,14.6,32.5,32.5,32.5h135.4
			c18,0,32.5-14.6,32.5-32.5v-97.6C502,601.9,487.4,587.3,469.4,587.3z"/>
		<path id="XMLID_138_" class="st33" d="M468.9,586.8H333.5c-18,0-32.5,14.6-32.5,32.5v97.6c0,18,14.6,32.5,32.5,32.5h135.4
			c18,0,32.5-14.6,32.5-32.5v-97.6C501.4,601.3,486.9,586.8,468.9,586.8z"/>
		<path id="XMLID_137_" class="st34" d="M468.4,586.2H333c-18,0-32.5,14.6-32.5,32.5v97.6c0,18,14.6,32.5,32.5,32.5h135.4
			c18,0,32.5-14.6,32.5-32.5v-97.6C500.9,600.8,486.3,586.2,468.4,586.2z"/>
		<path id="XMLID_136_" class="st35" d="M467.9,585.7H332.5c-18,0-32.5,14.6-32.5,32.5v97.6c0,18,14.6,32.5,32.5,32.5h135.4
			c18,0,32.5-14.6,32.5-32.5v-97.6C500.4,600.3,485.8,585.7,467.9,585.7z"/>
		<path id="XMLID_135_" class="st36" d="M467.3,585.2H331.9c-18,0-32.5,14.6-32.5,32.5v97.6c0,18,14.6,32.5,32.5,32.5h135.4
			c18,0,32.5-14.6,32.5-32.5v-97.6C499.9,599.7,485.3,585.2,467.3,585.2z"/>
		<path id="XMLID_134_" class="st37" d="M466.8,584.7H331.4c-18,0-32.5,14.6-32.5,32.5v97.6c0,18,14.6,32.5,32.5,32.5h135.4
			c18,0,32.5-14.6,32.5-32.5v-97.6C499.3,599.2,484.8,584.7,466.8,584.7z"/>
		<path id="XMLID_133_" class="st38" d="M466.3,584.1H330.9c-18,0-32.5,14.6-32.5,32.5v97.6c0,18,14.6,32.5,32.5,32.5h135.4
			c18,0,32.5-14.6,32.5-32.5v-97.6C498.8,598.7,484.2,584.1,466.3,584.1z"/>
		<path id="XMLID_132_" class="st39" d="M465.7,583.6H330.3c-18,0-32.5,14.6-32.5,32.5v97.6c0,18,14.6,32.5,32.5,32.5h135.4
			c18,0,32.5-14.6,32.5-32.5v-97.6C498.3,598.2,483.7,583.6,465.7,583.6z"/>
		<path id="XMLID_131_" class="st40" d="M465.2,583.1H329.8c-18,0-32.5,14.6-32.5,32.5v97.6c0,18,14.6,32.5,32.5,32.5h135.4
			c18,0,32.5-14.6,32.5-32.5v-97.6C497.7,597.6,483.2,583.1,465.2,583.1z"/>
		<path id="XMLID_130_" class="st41" d="M464.7,582.5H329.3c-18,0-32.5,14.6-32.5,32.5v97.6c0,18,14.6,32.5,32.5,32.5h135.4
			c18,0,32.5-14.6,32.5-32.5v-97.6C497.2,597.1,482.7,582.5,464.7,582.5z"/>
		<path id="XMLID_129_" class="st42" d="M464.2,582H328.8c-18,0-32.5,14.6-32.5,32.5v97.6c0,18,14.6,32.5,32.5,32.5h135.4
			c18,0,32.5-14.6,32.5-32.5v-97.6C496.7,596.6,482.1,582,464.2,582z"/>
		<path id="XMLID_128_" class="st43" d="M463.6,581.5H328.2c-18,0-32.5,14.6-32.5,32.5v97.6c0,18,14.6,32.5,32.5,32.5h135.4
			c18,0,32.5-14.6,32.5-32.5V614C496.2,596.1,481.6,581.5,463.6,581.5z"/>
		<path id="XMLID_127_" class="st44" d="M463.1,581H327.7c-18,0-32.5,14.6-32.5,32.5v97.6c0,18,14.6,32.5,32.5,32.5h135.4
			c18,0,32.5-14.6,32.5-32.5v-97.6C495.6,595.5,481.1,581,463.1,581z"/>
		<path id="XMLID_126_" class="st45" d="M462.6,580.4H327.2c-18,0-32.5,14.6-32.5,32.5v97.6c0,18,14.6,32.5,32.5,32.5h135.4
			c18,0,32.5-14.6,32.5-32.5V613C495.1,595,480.5,580.4,462.6,580.4z"/>
		<path id="XMLID_125_" class="st46" d="M462.1,579.9H326.6c-18,0-32.5,14.6-32.5,32.5v97.6c0,18,14.6,32.5,32.5,32.5h135.4
			c18,0,32.5-14.6,32.5-32.5v-97.6C494.6,594.5,480,579.9,462.1,579.9z"/>
		<path id="XMLID_123_" class="st47" d="M461.5,579.4H326.1c-18,0-32.5,14.6-32.5,32.5v97.6c0,18,14.6,32.5,32.5,32.5h135.4
			c18,0,32.5-14.6,32.5-32.5v-97.6C494.1,593.9,479.5,579.4,461.5,579.4z"/>
	</g>
	<g id="XMLID_625_">
		<path id="XMLID_76_" class="st0" d="M749.3,604.2H613.9c-18,0-32.5,14.6-32.5,32.5v97.6c0,18,14.6,32.5,32.5,32.5h135.4
			c18,0,32.5-14.6,32.5-32.5v-97.6C781.9,618.7,767.3,604.2,749.3,604.2z"/>
		<path id="XMLID_122_" class="st1" d="M748.8,603.6H613.4c-18,0-32.5,14.6-32.5,32.5v97.6c0,18,14.6,32.5,32.5,32.5h135.4
			c18,0,32.5-14.6,32.5-32.5v-97.6C781.3,618.2,766.8,603.6,748.8,603.6z"/>
		<path id="XMLID_121_" class="st2" d="M748.3,603.1H612.9c-18,0-32.5,14.6-32.5,32.5v97.6c0,18,14.6,32.5,32.5,32.5h135.4
			c18,0,32.5-14.6,32.5-32.5v-97.6C780.8,617.7,766.3,603.1,748.3,603.1z"/>
		<path id="XMLID_120_" class="st3" d="M747.8,602.6H612.4c-18,0-32.5,14.6-32.5,32.5v97.6c0,18,14.6,32.5,32.5,32.5h135.4
			c18,0,32.5-14.6,32.5-32.5v-97.6C780.3,617.2,765.7,602.6,747.8,602.6z"/>
		<path id="XMLID_119_" class="st4" d="M747.2,602.1H611.8c-18,0-32.5,14.6-32.5,32.5v97.6c0,18,14.6,32.5,32.5,32.5h135.4
			c18,0,32.5-14.6,32.5-32.5v-97.6C779.8,616.6,765.2,602.1,747.2,602.1z"/>
		<path id="XMLID_118_" class="st5" d="M746.7,601.5H611.3c-18,0-32.5,14.6-32.5,32.5v97.6c0,18,14.6,32.5,32.5,32.5h135.4
			c18,0,32.5-14.6,32.5-32.5v-97.6C779.2,616.1,764.7,601.5,746.7,601.5z"/>
		<path id="XMLID_117_" class="st6" d="M746.2,601H610.8c-18,0-32.5,14.6-32.5,32.5v97.6c0,18,14.6,32.5,32.5,32.5h135.4
			c18,0,32.5-14.6,32.5-32.5v-97.6C778.7,615.6,764.1,601,746.2,601z"/>
		<path id="XMLID_116_" class="st7" d="M745.7,600.5H610.2c-18,0-32.5,14.6-32.5,32.5v97.6c0,18,14.6,32.5,32.5,32.5h135.4
			c18,0,32.5-14.6,32.5-32.5V633C778.2,615,763.6,600.5,745.7,600.5z"/>
		<path id="XMLID_115_" class="st8" d="M745.1,600H609.7c-18,0-32.5,14.6-32.5,32.5v97.6c0,18,14.6,32.5,32.5,32.5h135.4
			c18,0,32.5-14.6,32.5-32.5v-97.6C777.7,614.5,763.1,600,745.1,600z"/>
		<path id="XMLID_114_" class="st9" d="M744.6,599.4H609.2c-18,0-32.5,14.6-32.5,32.5v97.6c0,18,14.6,32.5,32.5,32.5h135.4
			c18,0,32.5-14.6,32.5-32.5V632C777.1,614,762.6,599.4,744.6,599.4z"/>
		<path id="XMLID_113_" class="st10" d="M744.1,598.9H608.7c-18,0-32.5,14.6-32.5,32.5v97.6c0,18,14.6,32.5,32.5,32.5h135.4
			c18,0,32.5-14.6,32.5-32.5v-97.6C776.6,613.5,762,598.9,744.1,598.9z"/>
		<path id="XMLID_112_" class="st11" d="M743.5,598.4H608.1c-18,0-32.5,14.6-32.5,32.5v97.6c0,18,14.6,32.5,32.5,32.5h135.4
			c18,0,32.5-14.6,32.5-32.5v-97.6C776.1,612.9,761.5,598.4,743.5,598.4z"/>
		<path id="XMLID_111_" class="st12" d="M743,597.8H607.6c-18,0-32.5,14.6-32.5,32.5V728c0,18,14.6,32.5,32.5,32.5H743
			c18,0,32.5-14.6,32.5-32.5v-97.6C775.5,612.4,761,597.8,743,597.8z"/>
		<path id="XMLID_110_" class="st13" d="M742.5,597.3H607.1c-18,0-32.5,14.6-32.5,32.5v97.6c0,18,14.6,32.5,32.5,32.5h135.4
			c18,0,32.5-14.6,32.5-32.5v-97.6C775,611.9,760.5,597.3,742.5,597.3z"/>
		<path id="XMLID_109_" class="st14" d="M742,596.8H606.6c-18,0-32.5,14.6-32.5,32.5v97.6c0,18,14.6,32.5,32.5,32.5H742
			c18,0,32.5-14.6,32.5-32.5v-97.6C774.5,611.4,759.9,596.8,742,596.8z"/>
		<path id="XMLID_108_" class="st15" d="M741.4,596.3H606c-18,0-32.5,14.6-32.5,32.5v97.6c0,18,14.6,32.5,32.5,32.5h135.4
			c18,0,32.5-14.6,32.5-32.5v-97.6C774,610.8,759.4,596.3,741.4,596.3z"/>
		<path id="XMLID_107_" class="st16" d="M740.9,595.7H605.5c-18,0-32.5,14.6-32.5,32.5v97.6c0,18,14.6,32.5,32.5,32.5h135.4
			c18,0,32.5-14.6,32.5-32.5v-97.6C773.4,610.3,758.9,595.7,740.9,595.7z"/>
		<path id="XMLID_106_" class="st17" d="M740.4,595.2H605c-18,0-32.5,14.6-32.5,32.5v97.6c0,18,14.6,32.5,32.5,32.5h135.4
			c18,0,32.5-14.6,32.5-32.5v-97.6C772.9,609.8,758.3,595.2,740.4,595.2z"/>
		<path id="XMLID_105_" class="st18" d="M739.9,594.7H604.4c-18,0-32.5,14.6-32.5,32.5v97.6c0,18,14.6,32.5,32.5,32.5h135.4
			c18,0,32.5-14.6,32.5-32.5v-97.6C772.4,609.2,757.8,594.7,739.9,594.7z"/>
		<path id="XMLID_104_" class="st19" d="M739.3,594.2H603.9c-18,0-32.5,14.6-32.5,32.5v97.6c0,18,14.6,32.5,32.5,32.5h135.4
			c18,0,32.5-14.6,32.5-32.5v-97.6C771.9,608.7,757.3,594.2,739.3,594.2z"/>
		<path id="XMLID_103_" class="st20" d="M738.8,593.6H603.4c-18,0-32.5,14.6-32.5,32.5v97.6c0,18,14.6,32.5,32.5,32.5h135.4
			c18,0,32.5-14.6,32.5-32.5v-97.6C771.3,608.2,756.8,593.6,738.8,593.6z"/>
		<path id="XMLID_102_" class="st21" d="M738.3,593.1H602.9c-18,0-32.5,14.6-32.5,32.5v97.6c0,18,14.6,32.5,32.5,32.5h135.4
			c18,0,32.5-14.6,32.5-32.5v-97.6C770.8,607.7,756.2,593.1,738.3,593.1z"/>
		<path id="XMLID_101_" class="st22" d="M737.7,592.6H602.3c-18,0-32.5,14.6-32.5,32.5v97.6c0,18,14.6,32.5,32.5,32.5h135.4
			c18,0,32.5-14.6,32.5-32.5v-97.6C770.3,607.1,755.7,592.6,737.7,592.6z"/>
		<path id="XMLID_100_" class="st23" d="M737.2,592H601.8c-18,0-32.5,14.6-32.5,32.5v97.6c0,18,14.6,32.5,32.5,32.5h135.4
			c18,0,32.5-14.6,32.5-32.5v-97.6C769.7,606.6,755.2,592,737.2,592z"/>
		<path id="XMLID_99_" class="st24" d="M736.7,591.5H601.3c-18,0-32.5,14.6-32.5,32.5v97.6c0,18,14.6,32.5,32.5,32.5h135.4
			c18,0,32.5-14.6,32.5-32.5V624C769.2,606.1,754.7,591.5,736.7,591.5z"/>
		<path id="XMLID_98_" class="st25" d="M736.2,591H600.8c-18,0-32.5,14.6-32.5,32.5v97.6c0,18,14.6,32.5,32.5,32.5h135.4
			c18,0,32.5-14.6,32.5-32.5v-97.6C768.7,605.6,754.1,591,736.2,591z"/>
		<path id="XMLID_97_" class="st26" d="M735.6,590.5H600.2c-18,0-32.5,14.6-32.5,32.5v97.6c0,18,14.6,32.5,32.5,32.5h135.4
			c18,0,32.5-14.6,32.5-32.5V623C768.2,605,753.6,590.5,735.6,590.5z"/>
		<path id="XMLID_96_" class="st27" d="M735.1,589.9H599.7c-18,0-32.5,14.6-32.5,32.5v97.6c0,18,14.6,32.5,32.5,32.5h135.4
			c18,0,32.5-14.6,32.5-32.5v-97.6C767.6,604.5,753.1,589.9,735.1,589.9z"/>
		<path id="XMLID_95_" class="st28" d="M734.6,589.4H599.2c-18,0-32.5,14.6-32.5,32.5v97.6c0,18,14.6,32.5,32.5,32.5h135.4
			c18,0,32.5-14.6,32.5-32.5v-97.6C767.1,604,752.5,589.4,734.6,589.4z"/>
		<path id="XMLID_94_" class="st29" d="M734,588.9H598.6c-18,0-32.5,14.6-32.5,32.5V719c0,18,14.6,32.5,32.5,32.5H734
			c18,0,32.5-14.6,32.5-32.5v-97.6C766.6,603.4,752,588.9,734,588.9z"/>
		<path id="XMLID_93_" class="st30" d="M733.5,588.4H598.1c-18,0-32.5,14.6-32.5,32.5v97.6c0,18,14.6,32.5,32.5,32.5h135.4
			c18,0,32.5-14.6,32.5-32.5v-97.6C766,602.9,751.5,588.4,733.5,588.4z"/>
		<path id="XMLID_92_" class="st31" d="M733,587.8H597.6c-18,0-32.5,14.6-32.5,32.5V718c0,18,14.6,32.5,32.5,32.5H733
			c18,0,32.5-14.6,32.5-32.5v-97.6C765.5,602.4,751,587.8,733,587.8z"/>
		<path id="XMLID_91_" class="st32" d="M732.5,587.3H597.1c-18,0-32.5,14.6-32.5,32.5v97.6c0,18,14.6,32.5,32.5,32.5h135.4
			c18,0,32.5-14.6,32.5-32.5v-97.6C765,601.9,750.4,587.3,732.5,587.3z"/>
		<path id="XMLID_90_" class="st33" d="M731.9,586.8H596.5c-18,0-32.5,14.6-32.5,32.5v97.6c0,18,14.6,32.5,32.5,32.5h135.4
			c18,0,32.5-14.6,32.5-32.5v-97.6C764.5,601.3,749.9,586.8,731.9,586.8z"/>
		<path id="XMLID_89_" class="st34" d="M731.4,586.2H596c-18,0-32.5,14.6-32.5,32.5v97.6c0,18,14.6,32.5,32.5,32.5h135.4
			c18,0,32.5-14.6,32.5-32.5v-97.6C763.9,600.8,749.4,586.2,731.4,586.2z"/>
		<path id="XMLID_88_" class="st35" d="M730.9,585.7H595.5c-18,0-32.5,14.6-32.5,32.5v97.6c0,18,14.6,32.5,32.5,32.5h135.4
			c18,0,32.5-14.6,32.5-32.5v-97.6C763.4,600.3,748.8,585.7,730.9,585.7z"/>
		<path id="XMLID_87_" class="st36" d="M730.4,585.2H595c-18,0-32.5,14.6-32.5,32.5v97.6c0,18,14.6,32.5,32.5,32.5h135.4
			c18,0,32.5-14.6,32.5-32.5v-97.6C762.9,599.7,748.3,585.2,730.4,585.2z"/>
		<path id="XMLID_86_" class="st37" d="M729.8,584.7H594.4c-18,0-32.5,14.6-32.5,32.5v97.6c0,18,14.6,32.5,32.5,32.5h135.4
			c18,0,32.5-14.6,32.5-32.5v-97.6C762.4,599.2,747.8,584.7,729.8,584.7z"/>
		<path id="XMLID_85_" class="st38" d="M729.3,584.1H593.9c-18,0-32.5,14.6-32.5,32.5v97.6c0,18,14.6,32.5,32.5,32.5h135.4
			c18,0,32.5-14.6,32.5-32.5v-97.6C761.8,598.7,747.3,584.1,729.3,584.1z"/>
		<path id="XMLID_84_" class="st39" d="M728.8,583.6H593.4c-18,0-32.5,14.6-32.5,32.5v97.6c0,18,14.6,32.5,32.5,32.5h135.4
			c18,0,32.5-14.6,32.5-32.5v-97.6C761.3,598.2,746.7,583.6,728.8,583.6z"/>
		<path id="XMLID_83_" class="st40" d="M728.2,583.1H592.8c-18,0-32.5,14.6-32.5,32.5v97.6c0,18,14.6,32.5,32.5,32.5h135.4
			c18,0,32.5-14.6,32.5-32.5v-97.6C760.8,597.6,746.2,583.1,728.2,583.1z"/>
		<path id="XMLID_82_" class="st41" d="M727.7,582.5H592.3c-18,0-32.5,14.6-32.5,32.5v97.6c0,18,14.6,32.5,32.5,32.5h135.4
			c18,0,32.5-14.6,32.5-32.5v-97.6C760.2,597.1,745.7,582.5,727.7,582.5z"/>
		<path id="XMLID_81_" class="st42" d="M727.2,582H591.8c-18,0-32.5,14.6-32.5,32.5v97.6c0,18,14.6,32.5,32.5,32.5h135.4
			c18,0,32.5-14.6,32.5-32.5v-97.6C759.7,596.6,745.2,582,727.2,582z"/>
		<path id="XMLID_80_" class="st43" d="M726.7,581.5H591.3c-18,0-32.5,14.6-32.5,32.5v97.6c0,18,14.6,32.5,32.5,32.5h135.4
			c18,0,32.5-14.6,32.5-32.5V614C759.2,596.1,744.6,581.5,726.7,581.5z"/>
		<path id="XMLID_79_" class="st44" d="M726.1,581H590.7c-18,0-32.5,14.6-32.5,32.5v97.6c0,18,14.6,32.5,32.5,32.5h135.4
			c18,0,32.5-14.6,32.5-32.5v-97.6C758.7,595.5,744.1,581,726.1,581z"/>
		<path id="XMLID_78_" class="st45" d="M725.6,580.4H590.2c-18,0-32.5,14.6-32.5,32.5v97.6c0,18,14.6,32.5,32.5,32.5h135.4
			c18,0,32.5-14.6,32.5-32.5V613C758.1,595,743.6,580.4,725.6,580.4z"/>
		<path id="XMLID_77_" class="st46" d="M725.1,579.9H589.7c-18,0-32.5,14.6-32.5,32.5v97.6c0,18,14.6,32.5,32.5,32.5h135.4
			c18,0,32.5-14.6,32.5-32.5v-97.6C757.6,594.5,743,579.9,725.1,579.9z"/>
		<path id="XMLID_75_" class="st47" d="M724.6,579.4H589.1c-18,0-32.5,14.6-32.5,32.5v97.6c0,18,14.6,32.5,32.5,32.5h135.4
			c18,0,32.5-14.6,32.5-32.5v-97.6C757.1,593.9,742.5,579.4,724.6,579.4z"/>
	</g>
	<g id="XMLID_572_">
		<path id="XMLID_28_" class="st0" d="M579.5,340.4H253.4c-40.9,0-74,33.1-74,74v0c0,40.9,33.1,74,74,74h326.1c40.9,0,74-33.1,74-74
			v0C653.5,373.6,620.4,340.4,579.5,340.4z"/>
		<path id="XMLID_74_" class="st1" d="M579,339.8H252.9c-40.9,0-74,33.1-74,74v0c0,40.9,33.1,74,74,74H579c40.9,0,74-33.1,74-74v0
			C653,372.9,619.9,339.8,579,339.8z"/>
		<path id="XMLID_73_" class="st2" d="M578.5,339.1H252.5c-40.9,0-74,33.1-74,74v0c0,40.9,33.1,74,74,74h326.1c40.9,0,74-33.1,74-74
			v0C652.5,372.3,619.4,339.1,578.5,339.1z"/>
		<path id="XMLID_72_" class="st3" d="M578,338.5H252c-40.9,0-74,33.1-74,74v0c0,40.9,33.1,74,74,74H578c40.9,0,74-33.1,74-74v0
			C652.1,371.6,618.9,338.5,578,338.5z"/>
		<path id="XMLID_71_" class="st4" d="M577.6,337.8H251.5c-40.9,0-74,33.1-74,74v0c0,40.9,33.1,74,74,74h326.1c40.9,0,74-33.1,74-74
			v0C651.6,371,618.4,337.8,577.6,337.8z"/>
		<path id="XMLID_70_" class="st5" d="M577.1,337.2H251c-40.9,0-74,33.1-74,74v0c0,40.9,33.1,74,74,74h326.1c40.9,0,74-33.1,74-74v0
			C651.1,370.3,618,337.2,577.1,337.2z"/>
		<path id="XMLID_69_" class="st6" d="M576.6,336.5H250.5c-40.9,0-74,33.1-74,74v0c0,40.9,33.1,74,74,74h326.1c40.9,0,74-33.1,74-74
			v0C650.6,369.7,617.5,336.5,576.6,336.5z"/>
		<path id="XMLID_68_" class="st7" d="M576.1,335.9H250.1c-40.9,0-74,33.1-74,74v0c0,40.9,33.1,74,74,74h326.1c40.9,0,74-33.1,74-74
			v0C650.1,369,617,335.9,576.1,335.9z"/>
		<path id="XMLID_67_" class="st8" d="M575.6,335.2H249.6c-40.9,0-74,33.1-74,74v0c0,40.9,33.1,74,74,74h326.1c40.9,0,74-33.1,74-74
			v0C649.7,368.4,616.5,335.2,575.6,335.2z"/>
		<path id="XMLID_66_" class="st9" d="M575.1,334.6H249.1c-40.9,0-74,33.1-74,74v0c0,40.9,33.1,74,74,74h326.1c40.9,0,74-33.1,74-74
			v0C649.2,367.7,616,334.6,575.1,334.6z"/>
		<path id="XMLID_65_" class="st10" d="M574.7,333.9H248.6c-40.9,0-74,33.1-74,74v0c0,40.9,33.1,74,74,74h326.1
			c40.9,0,74-33.1,74-74v0C648.7,367.1,615.5,333.9,574.7,333.9z"/>
		<path id="XMLID_64_" class="st11" d="M574.2,333.3H248.1c-40.9,0-74,33.1-74,74v0c0,40.9,33.1,74,74,74h326.1
			c40.9,0,74-33.1,74-74v0C648.2,366.4,615.1,333.3,574.2,333.3z"/>
		<path id="XMLID_63_" class="st12" d="M573.7,332.6H247.6c-40.9,0-74,33.1-74,74v0c0,40.9,33.1,74,74,74h326.1
			c40.9,0,74-33.1,74-74v0C647.7,365.8,614.6,332.6,573.7,332.6z"/>
		<path id="XMLID_62_" class="st13" d="M573.2,332H247.2c-40.9,0-74,33.1-74,74v0c0,40.9,33.1,74,74,74h326.1c40.9,0,74-33.1,74-74
			v0C647.2,365.1,614.1,332,573.2,332z"/>
		<path id="XMLID_61_" class="st14" d="M572.7,331.3H246.7c-40.9,0-74,33.1-74,74v0c0,40.9,33.1,74,74,74h326.1
			c40.9,0,74-33.1,74-74v0C646.8,364.5,613.6,331.3,572.7,331.3z"/>
		<path id="XMLID_60_" class="st15" d="M572.3,330.7H246.2c-40.9,0-74,33.1-74,74v0c0,40.9,33.1,74,74,74h326.1
			c40.9,0,74-33.1,74-74v0C646.3,363.8,613.1,330.7,572.3,330.7z"/>
		<path id="XMLID_59_" class="st16" d="M571.8,330H245.7c-40.9,0-74,33.1-74,74v0c0,40.9,33.1,74,74,74h326.1c40.9,0,74-33.1,74-74
			v0C645.8,363.2,612.7,330,571.8,330z"/>
		<path id="XMLID_58_" class="st17" d="M571.3,329.4H245.2c-40.9,0-74,33.1-74,74v0c0,40.9,33.1,74,74,74h326.1
			c40.9,0,74-33.1,74-74v0C645.3,362.5,612.2,329.4,571.3,329.4z"/>
		<path id="XMLID_57_" class="st18" d="M570.8,328.7H244.8c-40.9,0-74,33.1-74,74v0c0,40.9,33.1,74,74,74h326.1
			c40.9,0,74-33.1,74-74v0C644.8,361.9,611.7,328.7,570.8,328.7z"/>
		<path id="XMLID_56_" class="st19" d="M570.3,328.1H244.3c-40.9,0-74,33.1-74,74v0c0,40.9,33.1,74,74,74h326.1
			c40.9,0,74-33.1,74-74v0C644.4,361.2,611.2,328.1,570.3,328.1z"/>
		<path id="XMLID_55_" class="st20" d="M569.8,327.4H243.8c-40.9,0-74,33.1-74,74v0c0,40.9,33.1,74,74,74h326.1
			c40.9,0,74-33.1,74-74v0C643.9,360.6,610.7,327.4,569.8,327.4z"/>
		<path id="XMLID_54_" class="st21" d="M569.4,326.8H243.3c-40.9,0-74,33.1-74,74v0c0,40.9,33.1,74,74,74h326.1
			c40.9,0,74-33.1,74-74v0C643.4,359.9,610.2,326.8,569.4,326.8z"/>
		<path id="XMLID_53_" class="st22" d="M568.9,326.1H242.8c-40.9,0-74,33.1-74,74v0c0,40.9,33.1,74,74,74h326.1
			c40.9,0,74-33.1,74-74v0C642.9,359.3,609.8,326.1,568.9,326.1z"/>
		<path id="XMLID_52_" class="st23" d="M568.4,325.5H242.3c-40.9,0-74,33.1-74,74v0c0,40.9,33.1,74,74,74h326.1
			c40.9,0,74-33.1,74-74v0C642.4,358.6,609.3,325.5,568.4,325.5z"/>
		<path id="XMLID_51_" class="st24" d="M567.9,324.8H241.9c-40.9,0-74,33.1-74,74v0c0,40.9,33.1,74,74,74h326.1
			c40.9,0,74-33.1,74-74v0C641.9,358,608.8,324.8,567.9,324.8z"/>
		<path id="XMLID_50_" class="st25" d="M567.4,324.2H241.4c-40.9,0-74,33.1-74,74v0c0,40.9,33.1,74,74,74h326.1
			c40.9,0,74-33.1,74-74v0C641.5,357.3,608.3,324.2,567.4,324.2z"/>
		<path id="XMLID_49_" class="st26" d="M567,323.5H240.9c-40.9,0-74,33.1-74,74v0c0,40.9,33.1,74,74,74H567c40.9,0,74-33.1,74-74v0
			C641,356.7,607.8,323.5,567,323.5z"/>
		<path id="XMLID_48_" class="st27" d="M566.5,322.9H240.4c-40.9,0-74,33.1-74,74v0c0,40.9,33.1,74,74,74h326.1
			c40.9,0,74-33.1,74-74v0C640.5,356,607.4,322.9,566.5,322.9z"/>
		<path id="XMLID_47_" class="st28" d="M566,322.2H239.9c-40.9,0-74,33.1-74,74v0c0,40.9,33.1,74,74,74H566c40.9,0,74-33.1,74-74v0
			C640,355.4,606.9,322.2,566,322.2z"/>
		<path id="XMLID_46_" class="st29" d="M565.5,321.6H239.5c-40.9,0-74,33.1-74,74v0c0,40.9,33.1,74,74,74h326.1
			c40.9,0,74-33.1,74-74v0C639.5,354.7,606.4,321.6,565.5,321.6z"/>
		<path id="XMLID_45_" class="st30" d="M565,320.9H239c-40.9,0-74,33.1-74,74v0c0,40.9,33.1,74,74,74H565c40.9,0,74-33.1,74-74v0
			C639.1,354.1,605.9,320.9,565,320.9z"/>
		<path id="XMLID_44_" class="st31" d="M564.5,320.3H238.5c-40.9,0-74,33.1-74,74v0c0,40.9,33.1,74,74,74h326.1
			c40.9,0,74-33.1,74-74v0C638.6,353.4,605.4,320.3,564.5,320.3z"/>
		<path id="XMLID_43_" class="st32" d="M564.1,319.6H238c-40.9,0-74,33.1-74,74v0c0,40.9,33.1,74,74,74h326.1c40.9,0,74-33.1,74-74
			v0C638.1,352.8,604.9,319.6,564.1,319.6z"/>
		<path id="XMLID_42_" class="st33" d="M563.6,319H237.5c-40.9,0-74,33.1-74,74v0c0,40.9,33.1,74,74,74h326.1c40.9,0,74-33.1,74-74
			v0C637.6,352.1,604.5,319,563.6,319z"/>
		<path id="XMLID_41_" class="st34" d="M563.1,318.3H237c-40.9,0-74,33.1-74,74v0c0,40.9,33.1,74,74,74h326.1c40.9,0,74-33.1,74-74
			v0C637.1,351.5,604,318.3,563.1,318.3z"/>
		<path id="XMLID_40_" class="st35" d="M562.6,317.7H236.6c-40.9,0-74,33.1-74,74v0c0,40.9,33.1,74,74,74h326.1
			c40.9,0,74-33.1,74-74v0C636.6,350.8,603.5,317.7,562.6,317.7z"/>
		<path id="XMLID_39_" class="st36" d="M562.1,317H236.1c-40.9,0-74,33.1-74,74v0c0,40.9,33.1,74,74,74h326.1c40.9,0,74-33.1,74-74
			v0C636.2,350.2,603,317,562.1,317z"/>
		<path id="XMLID_38_" class="st37" d="M561.7,316.4H235.6c-40.9,0-74,33.1-74,74v0c0,40.9,33.1,74,74,74h326.1
			c40.9,0,74-33.1,74-74v0C635.7,349.5,602.5,316.4,561.7,316.4z"/>
		<path id="XMLID_37_" class="st38" d="M561.2,315.7H235.1c-40.9,0-74,33.1-74,74v0c0,40.9,33.1,74,74,74h326.1
			c40.9,0,74-33.1,74-74v0C635.2,348.9,602.1,315.7,561.2,315.7z"/>
		<path id="XMLID_36_" class="st39" d="M560.7,315.1H234.6c-40.9,0-74,33.1-74,74v0c0,40.9,33.1,74,74,74h326.1
			c40.9,0,74-33.1,74-74v0C634.7,348.2,601.6,315.1,560.7,315.1z"/>
		<path id="XMLID_35_" class="st40" d="M560.2,314.4H234.2c-40.9,0-74,33.1-74,74v0c0,40.9,33.1,74,74,74h326.1
			c40.9,0,74-33.1,74-74v0C634.2,347.6,601.1,314.4,560.2,314.4z"/>
		<path id="XMLID_34_" class="st41" d="M559.7,313.8H233.7c-40.9,0-74,33.1-74,74v0c0,40.9,33.1,74,74,74h326.1
			c40.9,0,74-33.1,74-74v0C633.8,346.9,600.6,313.8,559.7,313.8z"/>
		<path id="XMLID_33_" class="st42" d="M559.2,313.1H233.2c-40.9,0-74,33.1-74,74v0c0,40.9,33.1,74,74,74h326.1
			c40.9,0,74-33.1,74-74v0C633.3,346.3,600.1,313.1,559.2,313.1z"/>
		<path id="XMLID_32_" class="st43" d="M558.8,312.5H232.7c-40.9,0-74,33.1-74,74v0c0,40.9,33.1,74,74,74h326.1
			c40.9,0,74-33.1,74-74v0C632.8,345.6,599.6,312.5,558.8,312.5z"/>
		<path id="XMLID_31_" class="st44" d="M558.3,311.8H232.2c-40.9,0-74,33.1-74,74v0c0,40.9,33.1,74,74,74h326.1
			c40.9,0,74-33.1,74-74v0C632.3,345,599.2,311.8,558.3,311.8z"/>
		<path id="XMLID_30_" class="st45" d="M557.8,311.2H231.7c-40.9,0-74,33.1-74,74v0c0,40.9,33.1,74,74,74h326.1
			c40.9,0,74-33.1,74-74v0C631.8,344.3,598.7,311.2,557.8,311.2z"/>
		<path id="XMLID_29_" class="st46" d="M557.3,310.5H231.3c-40.9,0-74,33.1-74,74v0c0,40.9,33.1,74,74,74h326.1
			c40.9,0,74-33.1,74-74v0C631.3,343.7,598.2,310.5,557.3,310.5z"/>
		<path id="XMLID_27_" class="st47" d="M556.8,309.9H230.8c-40.9,0-74,33.1-74,74v0c0,40.9,33.1,74,74,74h326.1
			c40.9,0,74-33.1,74-74v0C630.9,343,597.7,309.9,556.8,309.9z"/>
	</g>
	<path id="XMLID_571_" class="st48" d="M556.9,309.9H230.8c-40.9,0-74,33.1-74,74v0c0,40.9,33.1,74,74,74h326.1
		c40.9,0,74-33.1,74-74v0C630.9,343,597.8,309.9,556.9,309.9z"/>
	<g id="XMLID_569_">
		<path id="XMLID_570_" class="st49" d="M562.6,486.6H475v-5.9h87.6c53.3,0,96.7-43.4,96.7-96.7s-43.4-96.7-96.7-96.7H475v-5.9h87.6
			c56.6,0,102.6,46,102.6,102.6C665.2,440.5,619.2,486.6,562.6,486.6z"/>
	</g>
	<g id="XMLID_567_">
		<path id="XMLID_568_" class="st49" d="M312.7,486.6h-87.6c-56.6,0-102.6-46-102.6-102.6c0-56.6,46-102.6,102.6-102.6h87.6v5.9
			h-87.6c-53.3,0-96.7,43.4-96.7,96.7s43.4,96.7,96.7,96.7h87.6V486.6z"/>
	</g>
	<g id="XMLID_565_">
		<path id="XMLID_566_" class="st50" d="M393.8,558.7c-0.5,0-1-0.4-1-1v-74.1c0-0.5,0.4-1,1-1c0.5,0,1,0.4,1,1v74.1
			C394.8,558.2,394.4,558.7,393.8,558.7z"/>
	</g>
	<g id="XMLID_563_">
		<path id="XMLID_564_" class="st50" d="M656.9,558.7c-0.5,0-1-0.4-1-1c0-15.1-12.3-27.3-27.3-27.3H464.1
			c-14.5,0-26.2-11.8-26.2-26.2v-20.5c0-0.5,0.4-1,1-1c0.5,0,1,0.4,1,1v20.5c0,13.4,10.9,24.3,24.3,24.3h164.4
			c16.2,0,29.3,13.1,29.3,29.3C657.8,558.2,657.4,558.7,656.9,558.7z"/>
	</g>
	<g id="XMLID_561_">
		<path id="XMLID_562_" class="st50" d="M130.8,558.7c-0.5,0-1-0.4-1-1c0-16.2,13.1-29.3,29.3-29.3h164.4
			c13.4,0,24.3-10.9,24.3-24.3v-20.5c0-0.5,0.4-1,1-1c0.5,0,1,0.4,1,1v20.5c0,14.5-11.8,26.2-26.2,26.2H159.2
			c-15.1,0-27.3,12.3-27.3,27.3C131.8,558.2,131.4,558.7,130.8,558.7z"/>
	</g>
	<path id="XMLID_560_" class="st51" d="M461.5,579.4H326.1c-18,0-32.5,14.6-32.5,32.5v97.6c0,18,14.6,32.5,32.5,32.5h135.4
		c18,0,32.5-14.6,32.5-32.5v-97.6C494.1,593.9,479.5,579.4,461.5,579.4z"/>
	<path id="XMLID_559_" class="st52" d="M724.6,579.4H589.1c-18,0-32.5,14.6-32.5,32.5v97.6c0,18,14.6,32.5,32.5,32.5h135.4
		c18,0,32.5-14.6,32.5-32.5v-97.6C757.1,593.9,742.5,579.4,724.6,579.4z"/>
	<path id="XMLID_558_" class="st53" d="M198.5,579.4H63.1c-18,0-32.5,14.6-32.5,32.5v97.6c0,18,14.6,32.5,32.5,32.5h135.4
		c18,0,32.5-14.6,32.5-32.5v-97.6C231.1,593.9,216.5,579.4,198.5,579.4z"/>
	<g id="XMLID_556_">
		<circle id="XMLID_557_" class="st51" cx="393.8" cy="557.7" r="6.9"/>
	</g>
	<g id="XMLID_554_">
		<circle id="XMLID_555_" class="st52" cx="656.8" cy="557.7" r="6.9"/>
	</g>
	<g id="XMLID_552_">
		<circle id="XMLID_553_" class="st53" cx="130.8" cy="557.7" r="6.9"/>
	</g>
	<g id="XMLID_550_">
		<circle id="XMLID_551_" class="st51" cx="393.8" cy="483.6" r="6.9"/>
	</g>
	<g id="XMLID_548_">
		<circle id="XMLID_549_" class="st52" cx="438.9" cy="483.6" r="6.9"/>
	</g>
	<g id="XMLID_546_">
		<circle id="XMLID_547_" class="st53" cx="348.8" cy="483.6" r="6.9"/>
	</g>
	<g id="XMLID_544_">
		<path id="XMLID_545_" class="st50" d="M393.8,285.2c-0.5,0-1-0.4-1-1v-74.1c0-0.5,0.4-1,1-1c0.5,0,1,0.4,1,1v74.1
			C394.8,284.8,394.4,285.2,393.8,285.2z"/>
	</g>
	<g id="XMLID_542_">
		<path id="XMLID_543_" class="st50" d="M438.9,285.2c-0.5,0-1-0.4-1-1v-20.5c0-14.5,11.8-26.2,26.2-26.2h164.4
			c15.1,0,27.3-12.3,27.3-27.3c0-0.5,0.4-1,1-1c0.5,0,1,0.4,1,1c0,16.2-13.1,29.3-29.3,29.3H464.1c-13.4,0-24.3,10.9-24.3,24.3v20.5
			C439.9,284.8,439.4,285.2,438.9,285.2z"/>
	</g>
	<g id="XMLID_540_">
		<path id="XMLID_541_" class="st50" d="M348.8,285.2c-0.5,0-1-0.4-1-1v-20.5c0-13.4-10.9-24.3-24.3-24.3H159.2
			c-16.2,0-29.3-13.1-29.3-29.3c0-0.5,0.4-1,1-1c0.5,0,1,0.4,1,1c0,15.1,12.3,27.3,27.3,27.3h164.4c14.5,0,26.2,11.8,26.2,26.2v20.5
			C349.8,284.8,349.3,285.2,348.8,285.2z"/>
	</g>
	<path id="XMLID_539_" class="st54" d="M461.5,25.8H326.1c-18,0-32.5,14.6-32.5,32.5v97.6c0,18,14.6,32.5,32.5,32.5h135.4
		c18,0,32.5-14.6,32.5-32.5V58.3C494.1,40.3,479.5,25.8,461.5,25.8z"/>
	<path id="XMLID_538_" class="st55" d="M724.6,25.8H589.1c-18,0-32.5,14.6-32.5,32.5v97.6c0,18,14.6,32.5,32.5,32.5h135.4
		c18,0,32.5-14.6,32.5-32.5V58.3C757.1,40.3,742.5,25.8,724.6,25.8z"/>
	<path id="XMLID_537_" class="st56" d="M198.5,25.8H63.1c-18,0-32.5,14.6-32.5,32.5v97.6c0,18,14.6,32.5,32.5,32.5h135.4
		c18,0,32.5-14.6,32.5-32.5V58.3C231.1,40.3,216.5,25.8,198.5,25.8z"/>
	<g id="XMLID_535_">
		<circle id="XMLID_536_" class="st54" cx="393.8" cy="210.2" r="6.9"/>
	</g>
	<g id="XMLID_533_">
		<circle id="XMLID_534_" class="st55" cx="656.8" cy="210.2" r="6.9"/>
	</g>
	<g id="XMLID_531_">
		<circle id="XMLID_532_" class="st56" cx="130.8" cy="210.2" r="6.9"/>
	</g>
	<g id="XMLID_529_">
		<circle id="XMLID_530_" class="st54" cx="393.8" cy="284.2" r="6.9"/>
	</g>
	<g id="XMLID_527_">
		<circle id="XMLID_528_" class="st55" cx="438.9" cy="284.2" r="6.9"/>
	</g>
	<g id="XMLID_525_">
		<circle id="XMLID_526_" class="st56" cx="348.8" cy="284.2" r="6.9"/>
	</g>
	<g id="XMLID_450_">
		<g id="XMLID_493_">
			<g id="XMLID_520_">
				<g id="XMLID_521_">
					<path id="XMLID_522_" class="st0" d="M119.8,643.2c-8.4,0-15.2-6.8-15.2-15.2s6.8-15.2,15.2-15.2c8.4,0,15.2,6.8,15.2,15.2
						S128.2,643.2,119.8,643.2z M119.8,618.2c-5.4,0-9.8,4.4-9.8,9.8c0,5.4,4.4,9.8,9.8,9.8c5.4,0,9.8-4.4,9.8-9.8
						C129.7,622.6,125.2,618.2,119.8,618.2z"/>
				</g>
			</g>
			<g id="XMLID_517_">
				<g id="XMLID_518_">
					<circle id="XMLID_519_" class="st0" cx="119.8" cy="628" r="5.6"/>
				</g>
			</g>
			<g id="XMLID_514_">
				<g id="XMLID_515_">
					<rect id="XMLID_516_" x="115.8" y="607.8" class="st0" width="8.1" height="8.1"/>
				</g>
			</g>
			<g id="XMLID_511_">
				<g id="XMLID_512_">
					
						<rect id="XMLID_513_" x="127.2" y="612.6" transform="matrix(0.7071 0.7071 -0.7071 0.7071 474.4309 87.8001)" class="st0" width="8.1" height="8.1"/>
				</g>
			</g>
			<g id="XMLID_508_">
				<g id="XMLID_509_">
					<rect id="XMLID_510_" x="131.9" y="624" class="st0" width="8.1" height="8.1"/>
				</g>
			</g>
			<g id="XMLID_505_">
				<g id="XMLID_506_">
					
						<rect id="XMLID_507_" x="127.2" y="635.4" transform="matrix(-0.7071 0.7071 -0.7071 -0.7071 676.1707 998.7802)" class="st0" width="8.1" height="8.1"/>
				</g>
			</g>
			<g id="XMLID_502_">
				<g id="XMLID_503_">
					<rect id="XMLID_504_" x="115.8" y="640.1" class="st0" width="8.1" height="8.1"/>
				</g>
			</g>
			<g id="XMLID_499_">
				<g id="XMLID_500_">
					
						<rect id="XMLID_501_" x="104.4" y="635.4" transform="matrix(-0.7071 -0.7071 0.7071 -0.7071 -267.1102 1168.2186)" class="st0" width="8.1" height="8.1"/>
				</g>
			</g>
			<g id="XMLID_497_">
				<rect id="XMLID_498_" x="99.6" y="624" class="st0" width="8.1" height="8.1"/>
			</g>
			<g id="XMLID_494_">
				<g id="XMLID_495_">
					
						<rect id="XMLID_496_" x="104.4" y="612.6" transform="matrix(0.7071 -0.7071 0.7071 0.7071 -404.2474 257.2387)" class="st0" width="8.1" height="8.1"/>
				</g>
			</g>
		</g>
		<g id="XMLID_451_">
			<g id="XMLID_487_">
				<g id="XMLID_488_">
					<g id="XMLID_489_">
						<path id="XMLID_490_" class="st0" d="M148.2,622c-5.6,0-10.2-4.6-10.2-10.2c0-5.6,4.6-10.2,10.2-10.2
							c5.6,0,10.2,4.6,10.2,10.2C158.3,617.5,153.8,622,148.2,622z M148.2,604.2c-4.2,0-7.7,3.5-7.7,7.7c0,4.2,3.5,7.7,7.7,7.7
							c4.2,0,7.7-3.5,7.7-7.7C155.9,607.6,152.4,604.2,148.2,604.2z"/>
					</g>
				</g>
			</g>
			<g id="XMLID_483_">
				<g id="XMLID_484_">
					<g id="XMLID_485_">
						<circle id="XMLID_486_" class="st0" cx="148.2" cy="611.9" r="4.1"/>
					</g>
				</g>
			</g>
			<g id="XMLID_479_">
				<g id="XMLID_480_">
					<g id="XMLID_481_">
						<rect id="XMLID_482_" x="147" y="599.9" class="st0" width="2.5" height="2.7"/>
					</g>
				</g>
			</g>
			<g id="XMLID_475_">
				<g id="XMLID_476_">
					<g id="XMLID_477_">
						
							<rect id="XMLID_478_" x="154.4" y="603" transform="matrix(0.7071 0.7071 -0.7071 0.7071 472.9556 66.959)" class="st0" width="2.5" height="2.7"/>
					</g>
				</g>
			</g>
			<g id="XMLID_472_">
				<g id="XMLID_473_">
					<rect id="XMLID_474_" x="157.4" y="610.6" class="st0" width="2.7" height="2.5"/>
				</g>
			</g>
			<g id="XMLID_468_">
				<g id="XMLID_469_">
					<g id="XMLID_470_">
						
							<rect id="XMLID_471_" x="154.3" y="618.1" transform="matrix(0.7071 0.7071 -0.7071 0.7071 483.5216 71.3356)" class="st0" width="2.7" height="2.5"/>
					</g>
				</g>
			</g>
			<g id="XMLID_464_">
				<g id="XMLID_465_">
					<g id="XMLID_466_">
						<rect id="XMLID_467_" x="147" y="621.1" class="st0" width="2.5" height="2.7"/>
					</g>
				</g>
			</g>
			<g id="XMLID_460_">
				<g id="XMLID_461_">
					<g id="XMLID_462_">
						
							<rect id="XMLID_463_" x="139.5" y="618" transform="matrix(0.707 0.7072 -0.7072 0.707 479.2284 81.9544)" class="st0" width="2.5" height="2.7"/>
					</g>
				</g>
			</g>
			<g id="XMLID_456_">
				<g id="XMLID_457_">
					<g id="XMLID_458_">
						<rect id="XMLID_459_" x="136.3" y="610.6" class="st0" width="2.7" height="2.5"/>
					</g>
				</g>
			</g>
			<g id="XMLID_452_">
				<g id="XMLID_453_">
					<g id="XMLID_454_">
						
							<rect id="XMLID_455_" x="139.4" y="603.2" transform="matrix(0.7072 0.707 -0.707 0.7072 468.529 77.4942)" class="st0" width="2.7" height="2.5"/>
					</g>
				</g>
			</g>
		</g>
	</g>
	<g id="XMLID_431_">
		<g id="XMLID_446_">
			<path id="XMLID_447_" class="st0" d="M393.9,636.1c-9.8,0-17.7-7.9-17.7-17.7c0-9.8,7.9-17.7,17.7-17.7c9.8,0,17.7,7.9,17.7,17.7
				C411.6,628.2,403.6,636.1,393.9,636.1z M393.9,605.8c-6.9,0-12.6,5.7-12.6,12.6c0,6.9,5.7,12.6,12.6,12.6
				c6.9,0,12.6-5.7,12.6-12.6C406.5,611.5,400.8,605.8,393.9,605.8z"/>
		</g>
		<g id="XMLID_444_">
			<path id="XMLID_445_" class="st0" d="M393.9,598.8c-0.6,0-1.1-0.5-1.1-1.1v-5.6c0-0.6,0.5-1.1,1.1-1.1c0.6,0,1.1,0.5,1.1,1.1v5.6
				C395,598.3,394.5,598.8,393.9,598.8z"/>
		</g>
		<g id="XMLID_442_">
			<path id="XMLID_443_" class="st0" d="M408.6,604.8c-0.3,0-0.6-0.1-0.8-0.3c-0.4-0.4-0.4-1.1,0-1.5l3.9-3.9c0.4-0.4,1.1-0.4,1.5,0
				c0.4,0.4,0.4,1.1,0,1.5l-3.9,3.9C409.1,604.7,408.8,604.8,408.6,604.8z"/>
		</g>
		<g id="XMLID_440_">
			<path id="XMLID_441_" class="st0" d="M420.2,619.5h-5.6c-0.6,0-1.1-0.5-1.1-1.1c0-0.6,0.5-1.1,1.1-1.1h5.6c0.6,0,1.1,0.5,1.1,1.1
				C421.3,619,420.8,619.5,420.2,619.5z"/>
		</g>
		<g id="XMLID_438_">
			<path id="XMLID_439_" class="st0" d="M379.2,604.8c-0.3,0-0.6-0.1-0.8-0.3l-3.9-3.9c-0.4-0.4-0.4-1.1,0-1.5
				c0.4-0.4,1.1-0.4,1.5,0l3.9,3.9c0.4,0.4,0.4,1.1,0,1.5C379.7,604.7,379.5,604.8,379.2,604.8z"/>
		</g>
		<g id="XMLID_436_">
			<path id="XMLID_437_" class="st0" d="M373.1,619.5h-5.6c-0.6,0-1.1-0.5-1.1-1.1c0-0.6,0.5-1.1,1.1-1.1h5.6c0.6,0,1.1,0.5,1.1,1.1
				C374.2,619,373.7,619.5,373.1,619.5z"/>
		</g>
		<path id="XMLID_432_" class="st0" d="M400.1,631.8h-6.2h-6.2c0,0-0.4,8.4,0,11.9c0.4,3.5,6.2,4,6.2,4s5.8-0.5,6.2-4
			C400.4,640.2,400.1,631.8,400.1,631.8z M397.2,643.2h-6.7c-0.6,0-1.1-0.5-1.1-1.1c0-0.6,0.5-1.1,1.1-1.1h6.7
			c0.6,0,1.1,0.5,1.1,1.1C398.3,642.7,397.8,643.2,397.2,643.2z M397.2,639.4h-6.7c-0.6,0-1.1-0.5-1.1-1.1c0-0.6,0.5-1.1,1.1-1.1
			h6.7c0.6,0,1.1,0.5,1.1,1.1C398.3,638.9,397.8,639.4,397.2,639.4z"/>
	</g>
	<g id="XMLID_419_">
		<g id="XMLID_429_">
			<path id="XMLID_430_" class="st0" d="M640.4,627l8.2-8.5c0.4-0.4,1-0.7,1.7-0.7h19.1c1.3,0,2.3,1,2.3,2.3l0,0
				c0,1.3-1,2.3-2.3,2.3h-10.2c-0.4,0-0.8,0.2-1.1,0.4l0,0c-1,1-0.3,2.6,1.1,2.6h13.4c1.1,0,2.1-0.4,2.8-1.2l6.3-6.3
				c0.9-0.9,2.4-0.9,3.2,0l0.5,0.5c0.9,0.9,0.9,2.4,0,3.2l-9.4,9.4c-1.5,1.5-3.6,2.4-5.8,2.4h-18.8l-2.9,2.9L640.4,627z"/>
		</g>
		<g id="XMLID_424_">
			<g id="XMLID_425_">
				<path id="XMLID_426_" class="st0" d="M640.9,646.2l-11.2-13.1l7.9-6.6l11.2,13.1L640.9,646.2z M634.4,633.5l6.9,8l2.7-2.3
					l-6.9-8L634.4,633.5z"/>
			</g>
		</g>
		<g id="XMLID_422_">
			<path id="XMLID_423_" class="st0" d="M683,593.1c0-0.5-0.8-3.5-0.5-3.9c0,0-4.9,5.9-13.1,9.2c-4.9,2-8.1,7.8-6.2,12.2
				c0,0,0,0,0,0c3.4-0.8,9.9-3,13.9-9.1c0,0-3.2,9.8-12.1,11.6c0.5,0.4,1,0.8,1.6,1.2c0.4,0.2,0.9,0.4,1.3,0.6
				c8.3,3,13.9-5.9,14.9-12.8C683.3,599.1,683.3,596.1,683,593.1z"/>
		</g>
		<g id="XMLID_420_">
			<path id="XMLID_421_" class="st0" d="M646,599.5c0-0.3,0.6-2.5,0.4-2.8c0,0,3.5,4.2,9.4,6.6c3.5,1.4,5.8,5.6,4.4,8.7c0,0,0,0,0,0
				c-2.4-0.6-7.1-2.2-9.9-6.5c0,0,2.3,7,8.6,8.3c-0.3,0.3-0.7,0.6-1.2,0.8c-0.3,0.2-0.6,0.3-0.9,0.4c-6,2.2-9.9-4.2-10.7-9.2
				C645.8,603.7,645.8,601.6,646,599.5z"/>
		</g>
	</g>
	<g id="XMLID_406_">
		<g id="XMLID_417_">
			<rect id="XMLID_418_" x="636.1" y="81.8" class="st0" width="9.4" height="12.6"/>
		</g>
		<g id="XMLID_415_">
			<rect id="XMLID_416_" x="648.8" y="75.4" class="st0" width="9.4" height="19"/>
		</g>
		<g id="XMLID_413_">
			<rect id="XMLID_414_" x="661.5" y="69.2" class="st0" width="9.4" height="25.2"/>
		</g>
		<g id="XMLID_411_">
			<rect id="XMLID_412_" x="674.1" y="61.9" class="st0" width="9.4" height="32.5"/>
		</g>
		<g id="XMLID_409_">
			<polygon id="XMLID_410_" class="st0" points="683.5,45 671.3,49 679.5,57.2 			"/>
		</g>
		<g id="XMLID_407_">
			<polygon id="XMLID_408_" class="st0" points="645.6,74.5 635.3,74.5 635.3,70.8 644,70.8 655.1,59.7 666.4,59.7 675.5,50.5 
				678.2,53.2 667.9,63.4 656.6,63.4 			"/>
		</g>
	</g>
	<g id="XMLID_401_">
		<g id="XMLID_404_">
			<path id="XMLID_405_" class="st0" d="M421.6,66.5l-7.7-6.1V51h-7.5v3.4l-12.6-10l-27.8,22.1c-0.8,0.6-0.9,1.8-0.3,2.7
				c0.6,0.8,1.8,0.9,2.7,0.3l25.4-20.2l25.4,20.2c0.3,0.3,0.8,0.4,1.2,0.4c0.6,0,1.1-0.2,1.5-0.7C422.6,68.3,422.4,67.1,421.6,66.5z
				"/>
		</g>
		<g id="XMLID_402_">
			<path id="XMLID_403_" class="st0" d="M373.8,68.9v23.6H388v-9.8c0-2.9,2.4-5.3,5.3-5.3h1.2c2.9,0,5.3,2.4,5.3,5.3v9.8H414V68.9
				l-20.1-16L373.8,68.9z"/>
		</g>
	</g>
	<g id="XMLID_385_">
		<g id="XMLID_398_">
			<g id="XMLID_399_">
				<path id="XMLID_400_" class="st0" d="M128.2,92.5c-13.1,0-23.7-10.6-23.7-23.7s10.6-23.7,23.7-23.7c6.6,0,12.9,2.8,17.4,7.6
					c0.6,0.7,0.6,1.7-0.1,2.3c-0.7,0.6-1.7,0.6-2.3-0.1c-3.9-4.2-9.3-6.6-15-6.6c-11.3,0-20.4,9.2-20.4,20.4
					c0,11.3,9.2,20.4,20.4,20.4c11.3,0,20.4-9.2,20.4-20.4c0-1.9-0.3-3.7-0.8-5.5c-0.2-0.9,0.3-1.8,1.1-2c0.9-0.2,1.8,0.3,2,1.1
					c0.6,2.1,0.9,4.2,0.9,6.4C151.9,81.9,141.3,92.5,128.2,92.5z"/>
			</g>
		</g>
		<g id="XMLID_395_">
			<g id="XMLID_396_">
				<path id="XMLID_397_" class="st0" d="M128.2,84.8c-8.8,0-16-7.2-16-16c0-8.8,7.2-16,16-16c3.6,0,7.2,1.2,10,3.5
					c0.7,0.6,0.8,1.6,0.3,2.3c-0.6,0.7-1.6,0.8-2.3,0.3c-2.3-1.8-5-2.8-8-2.8c-7,0-12.8,5.7-12.8,12.8c0,7,5.7,12.8,12.8,12.8
					c7,0,12.8-5.7,12.8-12.8c0-0.4,0-0.8-0.1-1.2c-0.1-0.9,0.6-1.7,1.5-1.8c0.9-0.1,1.7,0.6,1.8,1.5c0,0.5,0.1,1,0.1,1.5
					C144.3,77.6,137.1,84.8,128.2,84.8z"/>
			</g>
		</g>
		<g id="XMLID_392_">
			<g id="XMLID_393_">
				<circle id="XMLID_394_" class="st0" cx="128.2" cy="68.8" r="7.7"/>
			</g>
		</g>
		<g id="XMLID_389_">
			<g id="XMLID_390_">
				<path id="XMLID_391_" class="st0" d="M128.2,70.4c-0.6,0-1.1-0.3-1.4-0.8c-0.4-0.8-0.1-1.8,0.6-2.2L153.7,53
					c0.8-0.4,1.8-0.1,2.2,0.6c0.4,0.8,0.1,1.8-0.6,2.2L129,70.2C128.8,70.4,128.5,70.4,128.2,70.4z"/>
			</g>
		</g>
		<g id="XMLID_386_">
			<g id="XMLID_387_">
				<path id="XMLID_388_" class="st0" d="M159.5,57.5c-0.1,0-0.3,0-0.4-0.1l-6.8-1.8l1.8-6.8c0.2-0.9,1.1-1.4,2-1.2
					c0.9,0.2,1.4,1.1,1.2,2l-1,3.6l3.6,1c0.9,0.2,1.4,1.1,1.2,2C160.9,57,160.2,57.5,159.5,57.5z"/>
			</g>
		</g>
	</g>
	<g id="XMLID_383_">
		<path id="XMLID_384_" class="st0" d="M192.1,107.6H67.7c-0.3,0-0.5-0.2-0.5-0.5c0-0.3,0.2-0.5,0.5-0.5h124.4
			c0.3,0,0.5,0.2,0.5,0.5C192.6,107.4,192.3,107.6,192.1,107.6z"/>
	</g>
	<text id="XMLID_382_" transform="matrix(1 0 0 1 82.9937 139.7441)"><tspan x="0" y="0" class="st0 st57 st58">Application </tspan><tspan x="10.6" y="19.4" class="st0 st57 st58">Worflow</tspan></text>
	<g id="XMLID_380_">
		<path id="XMLID_381_" class="st0" d="M455.4,107.6H331c-0.3,0-0.5-0.2-0.5-0.5c0-0.3,0.2-0.5,0.5-0.5h124.4c0.3,0,0.5,0.2,0.5,0.5
			C455.9,107.4,455.7,107.6,455.4,107.6z"/>
	</g>
	<text id="XMLID_379_" transform="matrix(1 0 0 1 347.2139 139.7441)" class="st0 st57 st58">Integration</text>
	<text id="XMLID_378_" transform="matrix(1 0 0 1 324.9507 433.0088)" class="st0 st59 st60">Features</text>
	<text id="XMLID_377_" transform="matrix(1 0 0 1 333.7954 382.1231)" class="st0 st61 st62">Vms</text>
	<g id="XMLID_375_">
		<path id="XMLID_376_" class="st0" d="M719.7,107.6H595.3c-0.3,0-0.5-0.2-0.5-0.5c0-0.3,0.2-0.5,0.5-0.5h124.4
			c0.3,0,0.5,0.2,0.5,0.5C720.2,107.4,720,107.6,719.7,107.6z"/>
	</g>
	<text id="XMLID_374_" transform="matrix(1 0 0 1 559.3154 139.7441)"><tspan x="0" y="0" class="st0 st57 st58">Organization Structure</tspan><tspan x="38" y="19.4" class="st0 st57 st58">and locations</tspan></text>
	<g id="XMLID_372_">
		<path id="XMLID_373_" class="st0" d="M719.7,661.2H595.3c-0.3,0-0.5-0.2-0.5-0.5c0-0.3,0.2-0.5,0.5-0.5h124.4
			c0.3,0,0.5,0.2,0.5,0.5C720.2,661,720,661.2,719.7,661.2z"/>
	</g>
	<text id="XMLID_371_" transform="matrix(1 0 0 1 625.5889 689.748)" class="st0 st57 st58">Securtiy</text>
	<g id="XMLID_369_">
		<path id="XMLID_370_" class="st0" d="M455.4,661.2H331c-0.3,0-0.5-0.2-0.5-0.5c0-0.3,0.2-0.5,0.5-0.5h124.4c0.3,0,0.5,0.2,0.5,0.5
			C455.9,661,455.7,661.2,455.4,661.2z"/>
	</g>
	<text id="XMLID_368_" transform="matrix(1 0 0 1 368.9409 688.625)" class="st0 st57 st58">Assets</text>
	<g id="XMLID_366_">
		<path id="XMLID_367_" class="st0" d="M192.4,661.2H68c-0.3,0-0.5-0.2-0.5-0.5c0-0.3,0.2-0.5,0.5-0.5h124.4c0.3,0,0.5,0.2,0.5,0.5
			C192.9,661,192.6,661.2,192.4,661.2z"/>
	</g>
	<text id="XMLID_365_" transform="matrix(1 0 0 1 78.6934 690.4219)" class="st0 st57 st58">Notifications</text>
</g>
</svg>
